<svg width="56" height="56" viewBox="0 0 56 56" fill="none" xmlns="http://www.w3.org/2000/svg">
<path d="M39 17H17.6667C16.2 17 15 18.2 15 19.6667V35.6667C15 37.1333 16.2 38.3333 17.6667 38.3333H39C40.4667 38.3333 41.6667 37.1333 41.6667 35.6667V19.6667C41.6667 18.2 40.4667 17 39 17ZM19 27.6667H21.6667C22.4 27.6667 23 28.2667 23 29C23 29.7333 22.4 30.3333 21.6667 30.3333H19C18.2667 30.3333 17.6667 29.7333 17.6667 29C17.6667 28.2667 18.2667 27.6667 19 27.6667ZM29.6667 35.6667H19C18.2667 35.6667 17.6667 35.0667 17.6667 34.3333C17.6667 33.6 18.2667 33 19 33H29.6667C30.4 33 31 33.6 31 34.3333C31 35.0667 30.4 35.6667 29.6667 35.6667ZM37.6667 35.6667H35C34.2667 35.6667 33.6667 35.0667 33.6667 34.3333C33.6667 33.6 34.2667 33 35 33H37.6667C38.4 33 39 33.6 39 34.3333C39 35.0667 38.4 35.6667 37.6667 35.6667ZM37.6667 30.3333H27C26.2667 30.3333 25.6667 29.7333 25.6667 29C25.6667 28.2667 26.2667 27.6667 27 27.6667H37.6667C38.4 27.6667 39 28.2667 39 29C39 29.7333 38.4 30.3333 37.6667 30.3333Z" fill="white"/>
</svg>
