<svg width="28" height="22" viewBox="0 0 28 22" fill="none" xmlns="http://www.w3.org/2000/svg">
<path d="M24.6667 0.333374H3.33341C1.86675 0.333374 0.666748 1.53337 0.666748 3.00004V19C0.666748 20.4667 1.86675 21.6667 3.33341 21.6667H24.6667C26.1334 21.6667 27.3334 20.4667 27.3334 19V3.00004C27.3334 1.53337 26.1334 0.333374 24.6667 0.333374ZM4.66675 11H7.33341C8.06675 11 8.66675 11.6 8.66675 12.3334C8.66675 13.0667 8.06675 13.6667 7.33341 13.6667H4.66675C3.93341 13.6667 3.33341 13.0667 3.33341 12.3334C3.33341 11.6 3.93341 11 4.66675 11ZM15.3334 19H4.66675C3.93341 19 3.33341 18.4 3.33341 17.6667C3.33341 16.9334 3.93341 16.3334 4.66675 16.3334H15.3334C16.0667 16.3334 16.6667 16.9334 16.6667 17.6667C16.6667 18.4 16.0667 19 15.3334 19ZM23.3334 19H20.6667C19.9334 19 19.3334 18.4 19.3334 17.6667C19.3334 16.9334 19.9334 16.3334 20.6667 16.3334H23.3334C24.0667 16.3334 24.6667 16.9334 24.6667 17.6667C24.6667 18.4 24.0667 19 23.3334 19ZM23.3334 13.6667H12.6667C11.9334 13.6667 11.3334 13.0667 11.3334 12.3334C11.3334 11.6 11.9334 11 12.6667 11H23.3334C24.0667 11 24.6667 11.6 24.6667 12.3334C24.6667 13.0667 24.0667 13.6667 23.3334 13.6667Z" fill="white"/>
</svg>
