<?xml version="1.0" encoding="utf-8"?>
<!-- Generator: Adobe Illustrator 21.0.0, SVG Export Plug-In . SVG Version: 6.00 Build 0)  -->
<svg version="1.1" id="Layer_1" xmlns="http://www.w3.org/2000/svg" xmlns:xlink="http://www.w3.org/1999/xlink" x="0px" y="0px"
	 viewBox="0 0 32 32" style="enable-background:new 0 0 32 32;" xml:space="preserve">
<style type="text/css">
	.st0{opacity:0.302;}
	.st1{fill:#00AB9D;}
</style>
<g id="Rectangle_17" class="st0">
	<g>
		<rect x="4.9" y="7.7" class="st1" width="22.1" height="11.9"/>
	</g>
</g>
<g id="Rectangle_18" class="st0">
	<g>
		<polygon class="st1" points="18.4,19.6 13.6,19.6 11.2,24.3 20.8,24.3 		"/>
	</g>
</g>
<g id="Shape_5_1_">
	<g>
		<path class="st1" d="M27.1,5.3H4.9c-1.3,0-2.4,1.1-2.4,2.4v11.9c0,1.3,1.1,2.4,2.4,2.4h3.6v-2.4H4.9V7.7h22.1v11.9h-3.6v2.4h3.6
			c1.3,0,2.4-1.1,2.4-2.4V7.7C29.4,6.4,28.4,5.3,27.1,5.3z M17,16.5c-0.2-0.2-0.6-0.5-1-0.5c-0.4,0-0.7,0.2-1,0.5l-5.9,8.3
			C8.9,25.2,8.9,25.6,9,26c0.2,0.4,0.6,0.6,1.1,0.6h11.9c0.5,0,0.8-0.2,1.1-0.6c0.1-0.1,0.1-0.2,0.1-0.5c0-0.2-0.1-0.5-0.2-0.7
			L17,16.5z M12.3,24.3l3.7-5.1l3.7,5.1H12.3z"/>
	</g>
</g>
</svg>
