<?xml version="1.0" encoding="utf-8"?>
<!-- Generator: Adobe Illustrator 21.0.0, SVG Export Plug-In . SVG Version: 6.00 Build 0)  -->
<svg version="1.1" id="Layer_1" xmlns="http://www.w3.org/2000/svg" xmlns:xlink="http://www.w3.org/1999/xlink" x="0px" y="0px"
	 viewBox="0 0 32 32" style="enable-background:new 0 0 32 32;" xml:space="preserve">
<style type="text/css">
	.st0{opacity:0.302;}
	.st1{fill-rule:evenodd;clip-rule:evenodd;fill:#1FABE2;}
</style>
<g id="Rectangle_17" class="st0">
	<g>
		<rect x="5" y="9" class="st1" width="22" height="10"/>
	</g>
</g>
<g id="Rectangle_18" class="st0">
	<g>
		<polygon class="st1" points="18,19 14,19 12,23 20,23 		"/>
	</g>
</g>
<g id="Shape_5_1_">
	<g>
		<path class="st1" d="M27,7H5C3.9,7,3,7.9,3,9v10c0,1.1,0.9,2,2,2h3v-2H5V9h22v10h-3v2h3c1.1,0,2-0.9,2-2V9C29,7.9,28.1,7,27,7z
			 M16.8,16.4C16.6,16.2,16.3,16,16,16c-0.3,0-0.6,0.2-0.8,0.4l-5,7c-0.2,0.3-0.2,0.7-0.1,1c0.2,0.3,0.5,0.5,0.9,0.5h10
			c0.4,0,0.7-0.2,0.9-0.5C22,24.3,22,24.2,22,24c0-0.2-0.1-0.4-0.2-0.6L16.8,16.4z M12.9,23l3.1-4.3l3.1,4.3H12.9z"/>
	</g>
</g>
</svg>
