<?xml version="1.0" encoding="utf-8"?>
<!-- Generator: Adobe Illustrator 21.0.0, SVG Export Plug-In . SVG Version: 6.00 Build 0)  -->
<svg version="1.1" id="Layer_1" xmlns="http://www.w3.org/2000/svg" xmlns:xlink="http://www.w3.org/1999/xlink" x="0px" y="0px"
	 viewBox="0 0 32 32" style="enable-background:new 0 0 32 32;" xml:space="preserve">
<style type="text/css">
	.st0{fill:#FFFFFF;}
</style>
<g id="Rectangle_8">
	<g>
		<path class="st0" d="M27.1,5.3H4.9c-1.3,0-2.4,1.1-2.4,2.4v11.9c0,1.3,1.1,2.4,2.4,2.4h3.6v-2.4H4.9V7.7h22.1v11.9h-3.6v2.4h3.6
			c1.3,0,2.4-1.1,2.4-2.4V7.7C29.4,6.4,28.4,5.3,27.1,5.3z"/>
	</g>
</g>
<g id="Shape_5">
	<g>
		<path class="st0" d="M22.9,24.8L17,16.5c-0.2-0.2-0.6-0.5-1-0.5c-0.4,0-0.7,0.2-1,0.5l-5.9,8.3C8.9,25.2,8.9,25.6,9,26
			c0.2,0.4,0.6,0.6,1.1,0.6h11.9c0.5,0,0.8-0.2,1.1-0.6c0.1-0.1,0.1-0.2,0.1-0.5C23.1,25.3,23,25,22.9,24.8z M12.3,24.3l3.7-5.1
			l3.7,5.1H12.3z"/>
	</g>
</g>
</svg>
