<?xml version="1.0" encoding="utf-8"?>
<!-- Generator: Adobe Illustrator 21.0.0, SVG Export Plug-In . SVG Version: 6.00 Build 0)  -->
<svg version="1.1" id="Layer_1" xmlns="http://www.w3.org/2000/svg" xmlns:xlink="http://www.w3.org/1999/xlink" x="0px" y="0px"
	 viewBox="0 0 32 32" style="enable-background:new 0 0 32 32;" xml:space="preserve">
<style type="text/css">
	.st0{fill-rule:evenodd;clip-rule:evenodd;fill:#FFFFFF;}
</style>
<g id="Rectangle_8">
	<g>
		<path class="st0" d="M27,7H5C3.9,7,3,7.9,3,9v10c0,1.1,0.9,2,2,2h3v-2H5V9h22v10h-3v2h3c1.1,0,2-0.9,2-2V9C29,7.9,28.1,7,27,7z"/>
	</g>
</g>
<g id="Shape_5">
	<g>
		<path class="st0" d="M21.8,23.4l-5-7C16.6,16.2,16.3,16,16,16s-0.6,0.2-0.8,0.4l-5,7c-0.2,0.3-0.2,0.7-0.1,1
			c0.2,0.3,0.5,0.5,0.9,0.5h10c0.4,0,0.7-0.2,0.9-0.5C22,24.3,22,24.2,22,24C22,23.8,21.9,23.6,21.8,23.4z M12.9,23l3.1-4.3l3.1,4.3
			H12.9z"/>
	</g>
</g>
</svg>
