<svg id="audo-tracks" xmlns="http://www.w3.org/2000/svg" viewBox="0 0 32 32"><defs><style>.cls-1{fill:#fff;}</style></defs><title>Artboard 1</title><path class="cls-1" d="M15.91,18.82a.62.62,0,0,1-.35.56.61.61,0,0,1-.65-.09L11.59,16.5H9.81a.6.6,0,0,1-.6-.6h0V13.47a.62.62,0,0,1,.6-.62h1.78l3.32-2.79a.63.63,0,0,1,.87.1.65.65,0,0,1,.13.38Zm2.34-.93H18.2a.64.64,0,0,1-.43-.18l-.08-.08a.6.6,0,0,1-.06-.79,3.54,3.54,0,0,0-.09-4.33.61.61,0,0,1,0-.82l.08-.08a.61.61,0,0,1,.46-.18.67.67,0,0,1,.45.22,4.89,4.89,0,0,1,.13,6,.61.61,0,0,1-.45.24Zm2.51,1.86a.58.58,0,0,1-.44.21h0a.63.63,0,0,1-.43-.17l-.08-.09a.61.61,0,0,1,0-.82,6.5,6.5,0,0,0-.1-8.46.6.6,0,0,1,0-.83V9.5a.56.56,0,0,1,.44-.17.57.57,0,0,1,.44.2,7.8,7.8,0,0,1,.13,10.24Z"/><path class="cls-1" d="M19.69,26.65l-3.56-3.14h-11a2.77,2.77,0,0,1-2.64-2.87V8.2A2.74,2.74,0,0,1,5.17,5.35H26.74A2.75,2.75,0,0,1,29.37,8.2V20.62a2.76,2.76,0,0,1-2.63,2.85H23ZM4.84,7.75V21.19h12l2.82,2.63,2.54-2.65h4.71V7.75Z"/></svg>