<svg id="Layer_1" data-name="Layer 1" xmlns="http://www.w3.org/2000/svg" viewBox="0 0 642 595.28"><defs><style>.cls-1{fill:#fff;}</style></defs><title>Artboard 1</title><path class="cls-1" d="M510.94,585,336.19,470H73.79c-33.08,0-60-29.25-60-65.21V76.65c0-35.95,26.91-65.19,60-65.19H566.85c33.09,0,60,29.24,60,65.19V404.76c0,36-26.92,65.21-60,65.21H518.79ZM73.79,55.59C65.2,55.59,58,65.23,58,76.65V404.76c0,11.42,7.25,21.08,15.84,21.08H349.4l122.66,80.73,5.51-80.73h89.28c8.61,0,15.86-9.66,15.86-21.08V76.65c0-11.42-7.25-21.06-15.86-21.06Z"/><path class="cls-1" d="M320.44,341.46A14.91,14.91,0,0,1,311.85,355a14.68,14.68,0,0,1-6.36,1.43A14.92,14.92,0,0,1,296,353l-81.63-67.64h-43.5a14.94,14.94,0,0,1-14.93-14.95v-59.5a14.94,14.94,0,0,1,14.93-15h43.5L296,128.26a14.95,14.95,0,0,1,24.48,11.51Zm57.39-23.34c-.36,0-.71,0-1.07,0a14.92,14.92,0,0,1-10.56-4.36l-2-2a15,15,0,0,1-1.44-19.48,86.83,86.83,0,0,0-2.29-106.41,14.92,14.92,0,0,1,1-20l2-2a14.59,14.59,0,0,1,11.3-4.35A15,15,0,0,1,385.62,165a119.58,119.58,0,0,1,3.1,147.13,14.94,14.94,0,0,1-10.89,5.95Zm61.76,46.16a15,15,0,0,1-10.79,5.28h-.64a15,15,0,0,1-10.56-4.36l-2-2a15,15,0,0,1-.88-20.18,159.15,159.15,0,0,0-2.62-208,14.92,14.92,0,0,1,.58-20.43l2-2a14.56,14.56,0,0,1,11-4.4,15,15,0,0,1,10.74,5,191.79,191.79,0,0,1,3.14,251Zm0,0"/></svg>