<svg id="audo-tracksX" xmlns="http://www.w3.org/2000/svg" viewBox="0 0 32 32"><defs><style>.cls-1,.cls-2{fill:#00AB9D;}.cls-1{opacity:0.3;isolation:isolate;}</style></defs><title>Artboard 1</title><polygon class="cls-1" points="28.02 6.56 28.02 21.86 22.02 21.86 20.3 25.3 15.37 22.16 3.87 22.16 3.87 6.56 28.02 6.56"/><path class="cls-2" d="M15.9,18.93a.62.62,0,0,1-.35.55.6.6,0,0,1-.64-.08l-3.33-2.79H9.81A.61.61,0,0,1,9.2,16h0V13.57A.62.62,0,0,1,9.81,13h1.77l3.33-2.79a.61.61,0,0,1,.86.1.62.62,0,0,1,.13.37ZM18.24,18h0a.63.63,0,0,1-.43-.17l-.08-.09a.61.61,0,0,1-.06-.79,3.53,3.53,0,0,0-.09-4.32.64.64,0,0,1,0-.82l.08-.09a.6.6,0,0,1,.46-.17.67.67,0,0,1,.45.22,4.88,4.88,0,0,1,.13,6,.61.61,0,0,1-.45.24Zm2.51,1.87a.66.66,0,0,1-.44.21h0a.6.6,0,0,1-.43-.18l-.08-.08a.61.61,0,0,1,0-.82,6.52,6.52,0,0,0-.1-8.47.6.6,0,0,1,0-.83V9.61a.62.62,0,0,1,.44-.18.58.58,0,0,1,.44.21,7.79,7.79,0,0,1,.13,10.23Z"/><path class="cls-2" d="M19.68,26.76l-3.56-3.15h-11a2.74,2.74,0,0,1-2.63-2.86V8.31A2.74,2.74,0,0,1,5.16,5.46H26.73a2.75,2.75,0,0,1,2.63,2.85V20.72a2.75,2.75,0,0,1-2.63,2.85H23ZM4.83,7.86V21.3h12l2.83,2.63,2.53-2.65h4.71V7.86Z"/></svg>