<svg width="36" height="36" viewBox="0 0 36 36" fill="none" xmlns="http://www.w3.org/2000/svg">
<rect width="36" height="36" rx="18" fill="white"/>
<path d="M17.9986 18C20.7986 18 22.9986 15.8 22.9986 13C22.9986 10.2 20.7986 8 17.9986 8C15.1986 8 12.9986 10.2 12.9986 13C12.9986 15.8 15.1986 18 17.9986 18ZM27.2986 26.8C25.9986 21.7 20.7986 18.5 15.6986 19.8C12.2986 20.7 9.59864 23.3 8.69864 26.8C8.59864 27.3 8.89864 27.9 9.49864 28C9.59864 28 9.69864 28 9.69864 28H26.2986C26.8986 28 27.2986 27.6 27.2986 27C27.2986 26.9 27.2986 26.8 27.2986 26.8Z" fill="#0D3841"/>
</svg>
