<?xml version="1.0" encoding="utf-8"?>
<!-- Generator: Adobe Illustrator 21.0.0, SVG Export Plug-In . SVG Version: 6.00 Build 0)  -->
<svg version="1.1" id="Layer_1" xmlns="http://www.w3.org/2000/svg" xmlns:xlink="http://www.w3.org/1999/xlink" x="0px" y="0px"
	 viewBox="0 0 32 32" style="enable-background:new 0 0 32 32;" xml:space="preserve">
<style type="text/css">
	.st0{opacity:0.302;}
	.st1{fill-rule:evenodd;clip-rule:evenodd;fill:#1FABE2;}
</style>
<g>
	<g id="Ellipse_1" class="st0">
		<g>
			<path class="st1" d="M7,8v3.1c5,0.6,9.1,4.2,10.5,8.9H27V8H7z"/>
		</g>
	</g>
	<g id="Rectangle_12_2_">
		<g>
			<path class="st1" d="M3,23v3h3C6,24.3,4.7,23,3,23z M3,18v2c3.3,0,6,2.7,6,6h2C11,21.6,7.4,18,3,18z M3,13v2c6.1,0,11,4.9,11,11
				h2C16,18.8,10.2,13,3,13z M27,6H7C5.9,6,5,6.9,5,8v2h2V8h20l0,12h-8v2h8c1.1,0,2-0.9,2-2V8C29,6.9,28.1,6,27,6z"/>
		</g>
	</g>
</g>
</svg>
