<?xml version="1.0" encoding="utf-8"?>
<!-- Generator: Adobe Illustrator 21.0.0, SVG Export Plug-In . SVG Version: 6.00 Build 0)  -->
<svg version="1.1" id="Layer_1" xmlns="http://www.w3.org/2000/svg" xmlns:xlink="http://www.w3.org/1999/xlink" x="0px" y="0px"
	 viewBox="0 0 32 32" style="enable-background:new 0 0 32 32;" xml:space="preserve">
<style type="text/css">
	.st0{fill-rule:evenodd;clip-rule:evenodd;fill:#FFFFFF;}
</style>
<g id="Rectangle_9_copy">
	<g>
		<path class="st0" d="M27,6H7C5.9,6,5,6.9,5,8v2h2V8h20l0,12h-8v2h8c1.1,0,2-0.9,2-2V8C29,6.9,28.1,6,27,6z"/>
	</g>
</g>
<g id="Rectangle_12">
	<g>
		<path class="st0" d="M3,13v2c6.1,0,11,4.9,11,11h2C16,18.8,10.2,13,3,13z M3,18v2c3.3,0,6,2.7,6,6h2C11,21.6,7.4,18,3,18z M3,23v3
			h3C6,24.3,4.7,23,3,23z"/>
	</g>
</g>
</svg>
