<?xml version="1.0" encoding="utf-8"?>
<!-- Generator: Adobe Illustrator 21.0.0, SVG Export Plug-In . SVG Version: 6.00 Build 0)  -->
<svg version="1.1" id="Layer_1" xmlns="http://www.w3.org/2000/svg" xmlns:xlink="http://www.w3.org/1999/xlink" x="0px" y="0px"
	 viewBox="0 0 32 32" style="enable-background:new 0 0 32 32;" xml:space="preserve">
<style type="text/css">
	.st0{fill-rule:evenodd;clip-rule:evenodd;fill:#FFFFFF;}
</style>
<g id="Rounded_Rectangle_6">
	<g>
		<path class="st0" d="M25.1,6.9c-0.8-0.8-2-0.8-2.8,0L6.9,22.2c-0.8,0.8-0.8,2,0,2.8c0.8,0.8,2,0.8,2.8,0L25.1,9.8
			C25.9,9,25.9,7.7,25.1,6.9z"/>
	</g>
</g>
<g id="Rounded_Rectangle_6_copy">
	<g>
		<path class="st0" d="M25.1,22.2L9.8,6.9c-0.8-0.8-2-0.8-2.8,0c-0.8,0.8-0.8,2,0,2.8l15.3,15.3c0.8,0.8,2,0.8,2.8,0
			C25.9,24.3,25.9,23,25.1,22.2z"/>
	</g>
</g>
</svg>
