<?xml version="1.0" encoding="utf-8"?>
<!-- Generator: Adobe Illustrator 21.0.0, SVG Export Plug-In . SVG Version: 6.00 Build 0)  -->
<svg version="1.1" id="Layer_1" xmlns="http://www.w3.org/2000/svg" xmlns:xlink="http://www.w3.org/1999/xlink" x="0px" y="0px"
	 viewBox="0 0 32 32" style="enable-background:new 0 0 32 32;" xml:space="preserve">
<style type="text/css">
	.st0{fill:#FFFFFF;}
</style>
<g id="Rounded_Rectangle_6">
	<g>
		<path class="st0" d="M26,6c-0.9-0.9-2.2-0.9-3.1,0L6,22.8c-0.9,0.9-0.9,2.2,0,3.1c0.9,0.9,2.2,0.9,3.1,0L26,9.2
			C26.9,8.3,26.9,6.9,26,6z"/>
	</g>
</g>
<g id="Rounded_Rectangle_6_copy">
	<g>
		<path class="st0" d="M26,22.8L9.2,6C8.3,5.1,7,5.1,6.1,6s-0.9,2.2,0,3.1l16.9,16.9c0.9,0.9,2.2,0.9,3.1,0
			C26.9,25.1,26.9,23.7,26,22.8z"/>
	</g>
</g>
</svg>
