<?xml version="1.0" encoding="utf-8"?>
<!-- Generator: Adobe Illustrator 21.0.0, SVG Export Plug-In . SVG Version: 6.00 Build 0)  -->
<svg version="1.1" id="Layer_1" xmlns="http://www.w3.org/2000/svg" xmlns:xlink="http://www.w3.org/1999/xlink" x="0px" y="0px"
	 viewBox="0 0 32 32" style="enable-background:new 0 0 32 32;" xml:space="preserve">
<style type="text/css">
	.st0{opacity:0.302;}
	.st1{fill:#1FABE2;}
</style>
<g id="Rectangle_19" class="st0">
	<g>
		<rect x="4.7" y="7.7" class="st1" width="22.5" height="16.5"/>
	</g>
</g>
<g id="Rectangle_6_1_">
	<g>
		<path class="st1" d="M4.7,7.7h4.7V5.4H4.7c-1.3,0-2.4,1.1-2.4,2.4v4.7h2.4V7.7z"/>
	</g>
</g>
<g id="Rectangle_6_copy_1_">
	<g>
		<path class="st1" d="M4.7,19.5H2.4v4.7c0,1.3,1.1,2.4,2.4,2.4h4.7v-2.4H4.7V19.5z"/>
	</g>
</g>
<g id="Rectangle_6_copy_2_1_">
	<g>
		<path class="st1" d="M27.3,5.4h-4.7v2.4h4.7v4.7h2.4V7.7C29.6,6.4,28.6,5.4,27.3,5.4z"/>
	</g>
</g>
<g id="Rectangle_6_copy_3_1_">
	<g>
		<path class="st1" d="M27.3,24.3h-4.7v2.4h4.7c1.3,0,2.4-1.1,2.4-2.4v-4.7h-2.4V24.3z"/>
	</g>
</g>
</svg>
