<?xml version="1.0" encoding="utf-8"?>
<!-- Generator: Adobe Illustrator 21.0.0, SVG Export Plug-In . SVG Version: 6.00 Build 0)  -->
<svg version="1.1" id="Layer_1" xmlns="http://www.w3.org/2000/svg" xmlns:xlink="http://www.w3.org/1999/xlink" x="0px" y="0px"
	 viewBox="0 0 32 32" style="enable-background:new 0 0 32 32;" xml:space="preserve">
<style type="text/css">
	.st0{fill-rule:evenodd;clip-rule:evenodd;fill:#FFFFFF;}
</style>
<g id="Rectangle_9">
	<g>
		<path class="st0" d="M27,7H5C3.9,7,3,7.9,3,9v14c0,1.1,0.9,2,2,2h8v-2H5V9h22v14h-8v2h8c1.1,0,2-0.9,2-2V9C29,7.9,28.1,7,27,7z"/>
	</g>
</g>
<g id="v">
	<g>
		<path class="st0" d="M11,12c-2.2,0-4,1.8-4,4s1.8,4,4,4s4-1.8,4-4S13.2,12,11,12z M11,18c-1.1,0-2-0.9-2-2s0.9-2,2-2s2,0.9,2,2
			S12.1,18,11,18z"/>
	</g>
</g>
<g id="v_copy">
	<g>
		<path class="st0" d="M21,12c-2.2,0-4,1.8-4,4s1.8,4,4,4c2.2,0,4-1.8,4-4S23.2,12,21,12z M21,18c-1.1,0-2-0.9-2-2s0.9-2,2-2
			c1.1,0,2,0.9,2,2S22.1,18,21,18z"/>
	</g>
</g>
<g id="Rectangle_10">
	<g>
		<path class="st0" d="M16,22c1.7,0,3,1.3,3,3h2c0-2.8-2.2-5-5-5s-5,2.2-5,5h2C13,23.3,14.3,22,16,22z"/>
	</g>
</g>
</svg>
