<?xml version="1.0" encoding="utf-8"?>
<!-- Generator: Adobe Illustrator 21.0.0, SVG Export Plug-In . SVG Version: 6.00 Build 0)  -->
<svg version="1.1" id="Layer_1" xmlns="http://www.w3.org/2000/svg" xmlns:xlink="http://www.w3.org/1999/xlink" x="0px" y="0px"
	 viewBox="0 0 32 32" style="enable-background:new 0 0 32 32;" xml:space="preserve">
<style type="text/css">
	.st0{opacity:0.302;}
	.st1{fill-rule:evenodd;clip-rule:evenodd;fill:#1FABE2;}
</style>
<g id="Rectangle_25" class="st0">
	<g>
		<path class="st1" d="M5,9v14h9v-2h4v2h9V9H5z M9,19v-6h5v6H9z M24,19h-6v-6h6V19z"/>
	</g>
</g>
<g id="Rectangle_10_1_">
	<g>
		<path class="st1" d="M21,20c2.2,0,4-1.8,4-4c0-2.2-1.8-4-4-4c-2.2,0-4,1.8-4,4C17,18.2,18.8,20,21,20z M21,14c1.1,0,2,0.9,2,2
			c0,1.1-0.9,2-2,2c-1.1,0-2-0.9-2-2C19,14.9,19.9,14,21,14z M11,20c2.2,0,4-1.8,4-4c0-2.2-1.8-4-4-4s-4,1.8-4,4
			C7,18.2,8.8,20,11,20z M11,14c1.1,0,2,0.9,2,2c0,1.1-0.9,2-2,2s-2-0.9-2-2C9,14.9,9.9,14,11,14z M27,7H5C3.9,7,3,7.9,3,9v14
			c0,1.1,0.9,2,2,2h8c0-1.7,1.3-3,3-3s3,1.3,3,3h8c1.1,0,2-0.9,2-2V9C29,7.9,28.1,7,27,7z M27,23h-6.4c-0.8-1.8-2.5-3-4.6-3
			s-3.8,1.2-4.6,3H5V9h22V23z"/>
	</g>
</g>
</svg>
