<?xml version="1.0" encoding="utf-8"?>
<!-- Generator: Adobe Illustrator 21.0.0, SVG Export Plug-In . SVG Version: 6.00 Build 0)  -->
<svg version="1.1" id="Layer_1" xmlns="http://www.w3.org/2000/svg" xmlns:xlink="http://www.w3.org/1999/xlink" x="0px" y="0px"
	 viewBox="0 0 32 32" style="enable-background:new 0 0 32 32;" xml:space="preserve">
<style type="text/css">
	.st0{opacity:0.302;}
	.st1{fill:#1FABE2;}
</style>
<g id="Rectangle_25" class="st0">
	<g>
		<path class="st1" d="M3,7.7v16.5h10.6v-2.4h4.7v2.4H29V7.7H3z M7.7,19.5v-7.1h5.9v7.1H7.7z M25.4,19.5h-7.1v-7.1h7.1V19.5z"/>
	</g>
</g>
<g id="Rectangle_10_1_">
	<g>
		<path class="st1" d="M21.9,20.7c2.6,0,4.7-2.1,4.7-4.7s-2.1-4.7-4.7-4.7s-4.7,2.1-4.7,4.7S19.3,20.7,21.9,20.7z M21.9,13.6
			c1.3,0,2.4,1.1,2.4,2.4s-1.1,2.4-2.4,2.4s-2.4-1.1-2.4-2.4S20.6,13.6,21.9,13.6z M10.1,20.7c2.6,0,4.7-2.1,4.7-4.7
			s-2.1-4.7-4.7-4.7S5.4,13.4,5.4,16S7.5,20.7,10.1,20.7z M10.1,13.6c1.3,0,2.4,1.1,2.4,2.4s-1.1,2.4-2.4,2.4S7.7,17.3,7.7,16
			S8.8,13.6,10.1,13.6z M29,5.4H3c-1.3,0-2.4,1.1-2.4,2.4v16.5c0,1.3,1.1,2.4,2.4,2.4h9.4c0-2,1.5-3.5,3.5-3.5s3.5,1.5,3.5,3.5H29
			c1.3,0,2.4-1.1,2.4-2.4V7.7C31.4,6.4,30.3,5.4,29,5.4z M29,24.3h-7.6c-0.9-2.1-3-3.5-5.4-3.5s-4.5,1.4-5.4,3.5H3V7.7h26V24.3z"/>
	</g>
</g>
</svg>
