<?xml version="1.0" encoding="utf-8"?>
<!-- Generator: Adobe Illustrator 21.0.0, SVG Export Plug-In . SVG Version: 6.00 Build 0)  -->
<svg version="1.1" id="Layer_1" xmlns="http://www.w3.org/2000/svg" xmlns:xlink="http://www.w3.org/1999/xlink" x="0px" y="0px"
	 viewBox="0 0 32 32" style="enable-background:new 0 0 32 32;" xml:space="preserve">
<style type="text/css">
	.st0{fill:#FFFFFF;}
</style>
<g id="Rectangle_9">
	<g>
		<path class="st0" d="M29,5.4H3c-1.3,0-2.4,1.1-2.4,2.4v16.5c0,1.3,1.1,2.4,2.4,2.4h9.4v-2.4H3V7.7h26v16.5h-9.4v2.4H29
			c1.3,0,2.4-1.1,2.4-2.4V7.7C31.4,6.4,30.3,5.4,29,5.4z"/>
	</g>
</g>
<g id="v">
	<g>
		<path class="st0" d="M10.1,11.3c-2.6,0-4.7,2.1-4.7,4.7s2.1,4.7,4.7,4.7s4.7-2.1,4.7-4.7S12.7,11.3,10.1,11.3z M10.1,18.4
			c-1.3,0-2.4-1.1-2.4-2.4s1.1-2.4,2.4-2.4s2.4,1.1,2.4,2.4S11.4,18.4,10.1,18.4z"/>
	</g>
</g>
<g id="v_copy">
	<g>
		<path class="st0" d="M21.9,11.3c-2.6,0-4.7,2.1-4.7,4.7s2.1,4.7,4.7,4.7s4.7-2.1,4.7-4.7S24.5,11.3,21.9,11.3z M21.9,18.4
			c-1.3,0-2.4-1.1-2.4-2.4s1.1-2.4,2.4-2.4s2.4,1.1,2.4,2.4S23.2,18.4,21.9,18.4z"/>
	</g>
</g>
<g id="Rectangle_10">
	<g>
		<path class="st0" d="M16,23.1c2,0,3.5,1.5,3.5,3.5h2.4c0-3.3-2.6-5.9-5.9-5.9s-5.9,2.6-5.9,5.9h2.4C12.5,24.6,14,23.1,16,23.1z"/>
	</g>
</g>
</svg>
