<?xml version="1.0" standalone="no"?>
<!DOCTYPE svg PUBLIC "-//W3C//DTD SVG 20010904//EN"
 "http://www.w3.org/TR/2001/REC-SVG-20010904/DTD/svg10.dtd">
<svg version="1.0" xmlns="http://www.w3.org/2000/svg"
 width="512.000000pt" height="512.000000pt" viewBox="0 0 512.000000 512.000000"
 preserveAspectRatio="xMidYMid meet">
<g transform="translate(0.000000,512.000000) scale(0.100000,-0.100000)"
fill="#000000" stroke="none">
<path d="M2528 4149 l-3 -971 -98 944 c-55 519 -101 953 -104 966 -4 16 -12
22 -34 22 -28 0 -29 -2 -24 -37 13 -90 196 -1856 193 -1864 -2 -6 -83 367
-181 828 -98 461 -187 882 -199 936 -19 89 -23 97 -44 97 -12 0 -26 -4 -29
-10 -3 -5 82 -424 190 -931 108 -507 194 -923 192 -925 -1 -2 -135 404 -297
901 -275 848 -295 905 -314 899 -12 -3 -24 -9 -29 -13 -4 -4 123 -409 283
-901 160 -491 289 -895 287 -896 -2 -2 -176 383 -387 856 -210 473 -388 860
-394 860 -7 0 -20 -6 -29 -12 -15 -12 20 -96 373 -888 214 -481 388 -875 387
-876 -1 -1 -217 370 -479 825 -262 454 -483 827 -490 829 -7 1 -21 -3 -31 -10
-15 -12 24 -84 432 -791 248 -428 461 -798 476 -823 14 -24 24 -44 21 -44 -2
0 -248 336 -547 748 -298 411 -550 756 -560 767 -19 19 -19 19 -40 -1 l-20
-21 482 -664 c659 -907 645 -888 611 -854 -16 17 -303 334 -637 705 -334 371
-613 676 -619 678 -7 1 -20 -6 -29 -16 -16 -17 14 -52 640 -748 609 -675 647
-720 523 -608 -1433 1291 -1323 1195 -1345 1174 -14 -15 -17 -24 -10 -35 6 -8
314 -287 685 -621 620 -557 751 -676 710 -647 -8 6 -357 259 -774 562 -751
545 -760 551 -779 532 -11 -10 -17 -24 -13 -29 4 -6 343 -255 754 -553 411
-298 754 -549 762 -557 13 -13 13 -13 -5 -4 -11 6 -382 220 -825 476 -727 420
-806 464 -818 448 -7 -9 -11 -23 -10 -30 2 -8 371 -227 820 -486 449 -260 820
-475 824 -479 4 -3 -388 169 -871 384 -482 215 -879 389 -881 386 -3 -3 -6
-16 -7 -31 -2 -26 21 -37 866 -413 477 -212 866 -387 864 -389 -1 -1 -409 130
-907 292 -497 161 -907 290 -911 286 -4 -4 -10 -16 -13 -28 -6 -19 6 -24 136
-67 79 -26 486 -158 906 -294 419 -137 759 -249 754 -251 -4 -1 -421 86 -926
193 -504 107 -922 195 -927 195 -5 0 -9 -13 -9 -29 0 -28 4 -30 53 -41 459
-95 1817 -389 1804 -389 -17 -1 -1801 184 -1865 193 -30 4 -32 3 -32 -24 0
-23 5 -31 23 -34 12 -3 445 -49 962 -103 l939 -98 -967 -3 -967 -2 0 -30 0
-30 978 -1 977 -1 -970 -104 c-533 -56 -971 -103 -972 -103 -2 -1 -3 -15 -3
-32 0 -30 1 -31 38 -25 74 12 1856 196 1865 193 4 -1 -189 -44 -430 -95 -241
-52 -662 -141 -935 -199 l-498 -106 0 -29 c0 -16 5 -28 13 -28 7 0 426 88 931
195 505 108 920 194 922 192 2 -2 -403 -136 -901 -297 -844 -275 -905 -296
-899 -315 3 -11 10 -24 14 -28 4 -4 409 123 900 282 491 160 895 289 897 287
2 -2 -384 -176 -857 -386 -854 -380 -861 -384 -855 -409 4 -14 8 -28 11 -30 2
-2 394 170 870 383 477 212 869 385 870 383 2 -1 -366 -216 -817 -476 -450
-260 -819 -478 -819 -485 0 -7 6 -20 13 -29 11 -16 90 28 802 439 435 251 805
465 823 476 17 11 32 17 32 15 0 -3 -336 -249 -747 -548 -412 -298 -756 -550
-766 -559 -16 -15 -17 -20 -6 -39 8 -11 17 -21 21 -21 4 0 305 217 670 482
919 667 887 645 848 605 -19 -19 -334 -303 -700 -632 -366 -328 -669 -603
-675 -611 -7 -10 -4 -19 10 -34 l21 -20 729 657 c676 608 721 647 609 522
-1275 -1414 -1195 -1322 -1174 -1344 15 -14 24 -17 35 -10 8 6 290 316 626
690 621 692 674 749 628 685 -14 -19 -265 -365 -558 -767 -292 -403 -534 -738
-536 -745 -3 -7 4 -19 16 -26 19 -12 24 -11 39 5 10 10 257 349 550 753 508
700 589 810 543 730 -16 -26 -909 -1576 -930 -1612 -2 -4 9 -14 24 -22 l28
-14 480 833 c264 458 481 832 482 830 2 -1 -170 -390 -382 -865 -212 -475
-387 -872 -390 -881 -7 -22 44 -37 56 -17 5 7 178 394 385 860 208 466 379
846 381 844 2 -2 -127 -405 -287 -897 -159 -491 -286 -896 -282 -900 4 -4 16
-10 28 -13 19 -6 38 48 314 898 162 498 296 903 298 902 2 -2 -85 -418 -192
-924 -108 -507 -196 -925 -196 -930 0 -5 13 -12 28 -14 l29 -4 199 938 c109
516 200 934 202 929 3 -8 -180 -1777 -193 -1863 -5 -37 -4 -38 25 -38 16 0 30
1 31 3 0 1 47 436 104 967 l103 965 1 -972 1 -973 30 0 30 0 1 973 1 972 103
-965 c57 -531 104 -966 104 -967 1 -2 15 -3 31 -3 29 0 30 1 25 37 -13 87
-196 1856 -193 1864 2 5 93 -413 202 -929 l199 -938 29 4 c15 2 28 9 28 14 0
5 -88 423 -196 930 -107 506 -194 922 -192 924 2 1 136 -404 298 -902 276
-851 295 -904 314 -898 12 3 24 9 28 13 4 4 -123 409 -283 900 -159 492 -288
895 -286 897 2 2 173 -378 380 -844 208 -466 381 -853 386 -860 12 -20 63 -5
56 17 -2 9 -178 405 -390 880 -212 476 -384 865 -382 866 1 2 218 -372 482
-830 l480 -833 28 14 c15 8 26 18 24 22 -21 36 -914 1586 -930 1612 -46 80 35
-30 552 -742 298 -411 546 -750 551 -753 14 -9 51 18 45 33 -2 7 -244 342
-536 745 -293 402 -544 748 -558 767 -45 64 6 8 628 -685 336 -374 618 -684
626 -690 11 -7 20 -4 34 10 22 22 62 -25 -1173 1344 -112 124 -65 85 609 -522
l729 -657 21 20 c14 15 17 24 10 34 -6 8 -309 283 -675 611 -366 328 -681 613
-700 632 -40 40 -69 61 848 -605 364 -265 666 -482 670 -482 4 0 13 10 21 21
11 19 10 24 -6 39 -10 9 -354 261 -765 559 -412 299 -748 545 -748 548 0 2 15
-4 33 -15 17 -11 388 -225 822 -476 712 -412 791 -455 803 -439 6 9 12 22 12
29 0 7 -369 225 -820 485 -450 260 -818 474 -816 476 1 2 393 -171 870 -383
476 -213 868 -385 870 -383 3 2 7 16 11 30 6 25 -1 29 -855 409 -473 210 -859
384 -857 386 2 2 406 -127 897 -287 491 -159 896 -286 900 -282 4 4 11 17 14
28 6 19 -55 40 -899 315 -498 161 -903 295 -901 297 2 2 417 -84 922 -192 505
-107 924 -195 931 -195 8 0 13 12 13 28 l0 29 -497 106 c-274 58 -695 147
-936 199 -241 51 -434 94 -430 95 9 3 1791 -181 1866 -193 36 -6 37 -5 37 25
0 17 -1 31 -2 32 -2 0 -439 47 -973 103 l-970 104 978 1 977 1 0 30 0 30 -967
2 -967 3 939 98 c517 54 950 100 963 103 17 3 22 11 22 34 0 27 -2 28 -32 24
-87 -12 -1854 -194 -1865 -192 -7 2 389 88 879 192 491 104 912 194 936 199
38 8 42 12 42 38 0 16 -4 29 -9 29 -5 0 -423 -88 -927 -195 -505 -107 -922
-194 -926 -193 -5 2 335 114 754 251 420 136 827 268 906 294 130 43 142 48
136 67 -3 12 -9 24 -13 28 -4 4 -414 -125 -911 -286 -498 -162 -906 -293 -907
-292 -2 2 387 176 864 389 478 212 869 392 871 399 1 7 -3 21 -10 30 -12 16
-93 -18 -887 -372 -481 -214 -871 -386 -867 -383 4 4 375 219 824 479 449 259
818 478 820 486 1 7 -3 21 -10 30 -12 16 -91 -28 -818 -448 -443 -256 -814
-470 -825 -476 -18 -9 -18 -9 -5 4 8 8 351 259 762 557 411 298 750 547 754
553 4 5 -2 19 -13 29 -19 19 -28 13 -779 -532 -417 -303 -766 -556 -774 -562
-41 -29 89 89 710 647 371 334 679 614 685 621 7 11 4 20 -10 35 -22 21 100
128 -1345 -1174 -124 -112 -85 -67 523 609 l657 729 -20 21 c-15 14 -24 17
-34 10 -8 -6 -285 -311 -616 -680 -331 -368 -616 -683 -632 -700 -17 -16 -1
11 34 60 36 50 289 398 562 774 l497 684 -20 21 c-21 20 -21 20 -40 1 -10 -11
-262 -356 -560 -767 -299 -412 -545 -748 -547 -748 -3 0 8 21 23 48 15 26 229
396 475 822 406 703 446 776 431 788 -10 7 -24 11 -31 10 -7 -2 -228 -375
-490 -829 -262 -455 -478 -826 -479 -825 -1 1 173 395 387 876 352 791 388
876 373 888 -9 6 -22 12 -29 12 -6 0 -184 -387 -394 -860 -211 -473 -385 -858
-387 -856 -2 2 127 405 287 896 160 492 287 897 283 901 -5 4 -17 10 -29 13
-19 6 -38 -50 -314 -899 -162 -497 -295 -903 -297 -901 -2 2 84 418 192 925
108 507 193 926 190 931 -3 6 -17 10 -29 10 -21 0 -25 -8 -44 -97 -12 -54
-101 -475 -199 -936 -98 -460 -179 -833 -181 -828 -3 8 180 1776 193 1864 5
36 4 37 -25 37 -16 0 -30 -1 -31 -2 0 -2 -47 -437 -104 -968 l-103 -965 -1
973 -1 972 -30 0 -30 0 -2 -971z"/>
</g>
</svg>
