<svg width="24" height="24" viewBox="0 0 24 24" fill="none" xmlns="http://www.w3.org/2000/svg">
<path d="M2.29279 21.707C2.48031 21.8945 2.73462 21.9998 2.99979 21.9998C3.26495 21.9998 3.51926 21.8945 3.70679 21.707L6.75779 18.656C8.08368 19.3105 9.54023 19.6571 11.0188 19.67C12.2685 19.6528 13.5017 19.3811 14.643 18.8715C15.7842 18.3619 16.8097 17.6251 17.6568 16.706C22.9998 11.361 21.9358 3.30003 21.8878 2.96303C21.8576 2.74802 21.7582 2.5487 21.6046 2.39518C21.4511 2.24165 21.2518 2.14226 21.0368 2.11203C20.6998 2.06303 12.6378 1.00003 7.29379 6.34403C5.8138 7.69256 4.8204 9.49196 4.4678 11.4629C4.1152 13.4338 4.42313 15.466 5.34379 17.244L2.29279 20.293C2.10532 20.4806 2 20.7349 2 21C2 21.2652 2.10532 21.5195 2.29279 21.707ZM8.70779 7.75803C12.4408 4.02503 17.9438 3.91903 19.9718 4.02803C20.0778 6.05703 19.9718 11.559 16.2428 15.292C15.2712 16.3946 13.9799 17.1666 12.5488 17.5005C11.1176 17.8344 9.61801 17.7137 8.25879 17.155L12.6588 12.755C12.7543 12.6628 12.8305 12.5524 12.8829 12.4304C12.9353 12.3084 12.9629 12.1772 12.964 12.0444C12.9652 11.9116 12.9399 11.78 12.8896 11.6571C12.8393 11.5342 12.7651 11.4225 12.6712 11.3286C12.5773 11.2347 12.4656 11.1605 12.3427 11.1102C12.2198 11.0599 12.0882 11.0346 11.9554 11.0358C11.8226 11.0369 11.6914 11.0645 11.5694 11.1169C11.4474 11.1693 11.337 11.2455 11.2448 11.341L6.84479 15.741C6.28637 14.3819 6.16572 12.8825 6.49965 11.4516C6.83358 10.0207 7.60546 8.72956 8.70779 7.75803Z" fill="#43C878"/>
</svg>
