<svg width="99" height="24" viewBox="0 0 99 24" fill="none" xmlns="http://www.w3.org/2000/svg">
<path d="M2.29279 21.707C2.48031 21.8945 2.73462 21.9998 2.99979 21.9998C3.26495 21.9998 3.51926 21.8945 3.70679 21.707L6.75779 18.656C8.08368 19.3105 9.54023 19.6571 11.0188 19.67C12.2685 19.6528 13.5017 19.3811 14.643 18.8715C15.7842 18.3619 16.8097 17.6251 17.6568 16.706C22.9998 11.361 21.9358 3.30003 21.8878 2.96303C21.8576 2.74802 21.7582 2.5487 21.6046 2.39518C21.4511 2.24165 21.2518 2.14226 21.0368 2.11203C20.6998 2.06303 12.6378 1.00003 7.29379 6.34403C5.8138 7.69256 4.8204 9.49196 4.4678 11.4629C4.1152 13.4338 4.42313 15.466 5.34379 17.244L2.29279 20.293C2.10532 20.4806 2 20.7349 2 21C2 21.2652 2.10532 21.5195 2.29279 21.707ZM8.70779 7.75803C12.4408 4.02503 17.9438 3.91903 19.9718 4.02803C20.0778 6.05703 19.9718 11.559 16.2428 15.292C15.2712 16.3946 13.9799 17.1666 12.5488 17.5005C11.1176 17.8344 9.61801 17.7137 8.25879 17.155L12.6588 12.755C12.7543 12.6628 12.8305 12.5524 12.8829 12.4304C12.9353 12.3084 12.9629 12.1772 12.964 12.0444C12.9652 11.9116 12.9399 11.78 12.8896 11.6571C12.8393 11.5342 12.7651 11.4225 12.6712 11.3286C12.5773 11.2347 12.4656 11.1605 12.3427 11.1102C12.2198 11.0599 12.0882 11.0346 11.9554 11.0358C11.8226 11.0369 11.6914 11.0645 11.5694 11.1169C11.4474 11.1693 11.337 11.2455 11.2448 11.341L6.84479 15.741C6.28637 14.3819 6.16572 12.8825 6.49965 11.4516C6.83358 10.0207 7.60546 8.72956 8.70779 7.75803Z" fill="#43C878"/>
<path d="M33.0043 17V6.81818H39.6264V8.36435H34.8487V11.1286H39.2834V12.6747H34.8487V15.4538H39.6662V17H33.0043ZM44.7596 17.1491C43.9973 17.1491 43.3427 16.9818 42.7958 16.647C42.2522 16.3123 41.833 15.8499 41.538 15.2599C41.2463 14.6667 41.1005 13.9839 41.1005 13.2116C41.1005 12.4361 41.2496 11.7517 41.5479 11.1584C41.8462 10.5618 42.2672 10.0978 42.8107 9.76633C43.3576 9.43158 44.0039 9.2642 44.7496 9.2642C45.3694 9.2642 45.918 9.37855 46.3952 9.60724C46.8758 9.83262 47.2586 10.1525 47.5437 10.5668C47.8287 10.9777 47.9911 11.4583 48.0309 12.0085H46.3107C46.2411 11.6406 46.0754 11.334 45.8136 11.0888C45.555 10.8402 45.2087 10.7159 44.7745 10.7159C44.4066 10.7159 44.0835 10.8153 43.805 11.0142C43.5266 11.2098 43.3095 11.4915 43.1538 11.8594C43.0013 12.2273 42.9251 12.6681 42.9251 13.1818C42.9251 13.7022 43.0013 14.1496 43.1538 14.5241C43.3062 14.8954 43.52 15.1821 43.7951 15.3842C44.0735 15.5831 44.4 15.6825 44.7745 15.6825C45.0397 15.6825 45.2766 15.6328 45.4854 15.5334C45.6976 15.4306 45.8749 15.2831 46.0174 15.0909C46.1599 14.8987 46.2577 14.665 46.3107 14.3899H48.0309C47.9878 14.9302 47.8287 15.4091 47.5536 15.8267C47.2785 16.241 46.904 16.5658 46.43 16.8011C45.9561 17.0331 45.3993 17.1491 44.7596 17.1491ZM52.8397 17.1491C52.0939 17.1491 51.4476 16.9851 50.9007 16.657C50.3539 16.3288 49.9296 15.8698 49.628 15.2798C49.3297 14.6899 49.1806 14.0005 49.1806 13.2116C49.1806 12.4228 49.3297 11.7318 49.628 11.1385C49.9296 10.5452 50.3539 10.0845 50.9007 9.75639C51.4476 9.42827 52.0939 9.2642 52.8397 9.2642C53.5854 9.2642 54.2317 9.42827 54.7786 9.75639C55.3255 10.0845 55.748 10.5452 56.0463 11.1385C56.348 11.7318 56.4988 12.4228 56.4988 13.2116C56.4988 14.0005 56.348 14.6899 56.0463 15.2798C55.748 15.8698 55.3255 16.3288 54.7786 16.657C54.2317 16.9851 53.5854 17.1491 52.8397 17.1491ZM52.8496 15.7074C53.254 15.7074 53.592 15.5964 53.8638 15.3743C54.1356 15.1489 54.3378 14.8473 54.4703 14.4695C54.6062 14.0916 54.6742 13.6707 54.6742 13.2067C54.6742 12.7393 54.6062 12.3168 54.4703 11.9389C54.3378 11.5578 54.1356 11.2545 53.8638 11.0291C53.592 10.8037 53.254 10.6911 52.8496 10.6911C52.4353 10.6911 52.0906 10.8037 51.8155 11.0291C51.5437 11.2545 51.3399 11.5578 51.204 11.9389C51.0714 12.3168 51.0051 12.7393 51.0051 13.2067C51.0051 13.6707 51.0714 14.0916 51.204 14.4695C51.3399 14.8473 51.5437 15.1489 51.8155 15.3743C52.0906 15.5964 52.4353 15.7074 52.8496 15.7074ZM61.5785 6.81818H63.8356L66.8583 14.196H66.9776L70.0004 6.81818H72.2575V17H70.4876V10.005H70.3931L67.5792 16.9702H66.2567L63.4428 9.99006H63.3484V17H61.5785V6.81818ZM77.5174 17.1491C76.7717 17.1491 76.1254 16.9851 75.5785 16.657C75.0316 16.3288 74.6074 15.8698 74.3058 15.2798C74.0075 14.6899 73.8583 14.0005 73.8583 13.2116C73.8583 12.4228 74.0075 11.7318 74.3058 11.1385C74.6074 10.5452 75.0316 10.0845 75.5785 9.75639C76.1254 9.42827 76.7717 9.2642 77.5174 9.2642C78.2631 9.2642 78.9094 9.42827 79.4563 9.75639C80.0032 10.0845 80.4258 10.5452 80.7241 11.1385C81.0257 11.7318 81.1765 12.4228 81.1765 13.2116C81.1765 14.0005 81.0257 14.6899 80.7241 15.2798C80.4258 15.8698 80.0032 16.3288 79.4563 16.657C78.9094 16.9851 78.2631 17.1491 77.5174 17.1491ZM77.5273 15.7074C77.9317 15.7074 78.2698 15.5964 78.5415 15.3743C78.8133 15.1489 79.0155 14.8473 79.1481 14.4695C79.284 14.0916 79.3519 13.6707 79.3519 13.2067C79.3519 12.7393 79.284 12.3168 79.1481 11.9389C79.0155 11.5578 78.8133 11.2545 78.5415 11.0291C78.2698 10.8037 77.9317 10.6911 77.5273 10.6911C77.113 10.6911 76.7683 10.8037 76.4933 11.0291C76.2215 11.2545 76.0176 11.5578 75.8817 11.9389C75.7492 12.3168 75.6829 12.7393 75.6829 13.2067C75.6829 13.6707 75.7492 14.0916 75.8817 14.4695C76.0176 14.8473 76.2215 15.1489 76.4933 15.3743C76.7683 15.5964 77.113 15.7074 77.5273 15.7074ZM85.5378 17.1342C84.9379 17.1342 84.401 16.9801 83.927 16.6719C83.4531 16.3636 83.0785 15.9162 82.8034 15.3295C82.5283 14.7429 82.3908 14.0303 82.3908 13.1918C82.3908 12.3433 82.53 11.6274 82.8084 11.044C83.0901 10.4574 83.4696 10.0149 83.9469 9.71662C84.4242 9.41501 84.9561 9.2642 85.5428 9.2642C85.9902 9.2642 86.3581 9.34044 86.6465 9.4929C86.9348 9.64205 87.1635 9.82268 87.3326 10.0348C87.5016 10.2436 87.6325 10.4408 87.7253 10.6264H87.7999V6.81818H89.6046V17H87.8347V15.7969H87.7253C87.6325 15.9825 87.4983 16.1797 87.3226 16.3885C87.147 16.594 86.915 16.7696 86.6266 16.9155C86.3382 17.0613 85.9753 17.1342 85.5378 17.1342ZM86.04 15.6577C86.4211 15.6577 86.7459 15.5549 87.0144 15.3494C87.2828 15.1406 87.4867 14.8506 87.6259 14.4794C87.7651 14.1082 87.8347 13.6757 87.8347 13.1818C87.8347 12.688 87.7651 12.2588 87.6259 11.8942C87.49 11.5296 87.2878 11.2462 87.0194 11.044C86.7542 10.8419 86.4277 10.7408 86.04 10.7408C85.6389 10.7408 85.3042 10.8452 85.0357 11.054C84.7672 11.2628 84.565 11.5511 84.4292 11.919C84.2933 12.2869 84.2253 12.7079 84.2253 13.1818C84.2253 13.6591 84.2933 14.085 84.4292 14.4595C84.5684 14.8307 84.7722 15.1241 85.0407 15.3395C85.3124 15.5516 85.6455 15.6577 86.04 15.6577ZM94.9031 17.1491C94.1374 17.1491 93.4762 16.9901 92.9194 16.6719C92.3659 16.3504 91.94 15.8963 91.6417 15.3097C91.3434 14.7197 91.1942 14.0253 91.1942 13.2266C91.1942 12.4411 91.3434 11.7517 91.6417 11.1584C91.9433 10.5618 92.3642 10.0978 92.9045 9.76633C93.4447 9.43158 94.0794 9.2642 94.8086 9.2642C95.2792 9.2642 95.7234 9.34044 96.141 9.4929C96.5619 9.64205 96.9331 9.87405 97.2546 10.1889C97.5794 10.5038 97.8346 10.9048 98.0202 11.392C98.2058 11.8759 98.2987 12.4527 98.2987 13.1222V13.674H92.0394V12.4609H96.5735C96.5702 12.1162 96.4956 11.8097 96.3498 11.5412C96.204 11.2694 96.0001 11.0556 95.7383 10.8999C95.4798 10.7441 95.1781 10.6662 94.8335 10.6662C94.4656 10.6662 94.1424 10.7557 93.864 10.9347C93.5856 11.1103 93.3685 11.3423 93.2127 11.6307C93.0603 11.9157 92.9824 12.2289 92.979 12.5703V13.6293C92.979 14.0734 93.0603 14.4545 93.2227 14.7727C93.3851 15.0876 93.6121 15.3295 93.9038 15.4986C94.1954 15.6643 94.5368 15.7472 94.9279 15.7472C95.1897 15.7472 95.4267 15.7107 95.6388 15.6378C95.851 15.5616 96.0349 15.4505 96.1907 15.3047C96.3465 15.1589 96.4641 14.9782 96.5437 14.7628L98.2241 14.9517C98.118 15.3958 97.9158 15.7836 97.6175 16.1151C97.3226 16.4432 96.9447 16.6984 96.484 16.8807C96.0233 17.0597 95.4963 17.1491 94.9031 17.1491Z" fill="white"/>
</svg>
