<?xml version="1.0" encoding="utf-8"?>
<!-- Generator: Adobe Illustrator 21.0.0, SVG Export Plug-In . SVG Version: 6.00 Build 0)  -->
<svg version="1.1" id="Layer_1" xmlns="http://www.w3.org/2000/svg" xmlns:xlink="http://www.w3.org/1999/xlink" x="0px" y="0px"
	 viewBox="0 0 68 68" style="enable-background:new 0 0 68 68;" xml:space="preserve">
<style type="text/css">
	.st0{fill-rule:evenodd;clip-rule:evenodd;fill:#1FABE2;}
</style>
<g id="Shape_1">
	<g>
		<path class="st0" d="M63.3,32.5L24.3,5v13.4l20.4,14.5c0.8,0.6,0.8,1.8,0,2.4L24.3,49.6V63l39-27.5C64.2,34.7,64.2,33.3,63.3,32.5
			z M38,32.5L12.8,14.7V25l11.1,7.9c0.8,0.6,0.8,1.8,0,2.4L12.8,43v10.3L38,35.5C39,34.7,39,33.3,38,32.5z M17.2,32.6L4,23.2v6.5
			l4.5,3.2c0.8,0.6,0.8,1.8,0,2.4L4,38.4v6.5l13.2-9.4C18.2,34.7,18.2,33.3,17.2,32.6z"/>
	</g>
</g>
</svg>
