<?xml version="1.0" encoding="utf-8"?>
<!-- Generator: Adobe Illustrator 21.0.0, SVG Export Plug-In . SVG Version: 6.00 Build 0)  -->
<svg version="1.1" id="Layer_1" xmlns="http://www.w3.org/2000/svg" xmlns:xlink="http://www.w3.org/1999/xlink" x="0px" y="0px"
	 viewBox="0 0 32 32" style="enable-background:new 0 0 32 32;" xml:space="preserve">
<style type="text/css">
	.st0{fill:#FFFFFF;}
</style>
<g id="Rectangle_2_copy_4">
	<g>
		<path class="st0" d="M12.2,13.1H6.4c-1.1,0-1.9,0.9-1.9,1.9v2c0,1.1,0.9,1.9,1.9,1.9h5.8c1.1,0,1.9-0.9,1.9-1.9v-2
			C14.1,14,13.2,13.1,12.2,13.1z M12.2,17H6.4v-2h5.8C12.2,15,12.2,17,12.2,17z"/>
	</g>
</g>
<g>
	<g id="Rounded_Rectangle_3">
		<g>
			<path class="st0" d="M18.1,11.9c-0.4,0.4-0.4,1,0,1.4l6.8,6.8c0.4,0.4,1,0.4,1.4,0s0.4-1,0-1.4l-6.8-6.8
				C19.1,11.5,18.5,11.5,18.1,11.9z"/>
		</g>
	</g>
	<g id="Rounded_Rectangle_3_1_">
		<g>
			<path class="st0" d="M26.3,11.9c-0.4-0.4-1-0.4-1.4,0l-6.8,6.8c-0.4,0.4-0.4,1,0,1.4s1,0.4,1.4,0l6.8-6.8
				C26.7,12.9,26.7,12.3,26.3,11.9z"/>
		</g>
	</g>
</g>
<g>
	<path class="st0" d="M17.9,21.7v2l-9.6-7v2.5l10,7.1c0.2,0.1,0.4,0.2,0.6,0.2s0.3,0,0.5-0.1c0.3-0.2,0.6-0.5,0.6-0.9v-3.9
		L17.9,21.7L17.9,21.7z"/>
	<path class="st0" d="M17.9,10.3H20v-4c-0.1-0.4-0.3-0.7-0.7-0.9c-0.3-0.2-0.8-0.1-1.1,0.1l-9.9,7.1v2.5l9.6-6.9V10.3z"/>
</g>
</svg>
