<?xml version="1.0" encoding="utf-8"?>
<!-- Generator: Adobe Illustrator 21.0.0, SVG Export Plug-In . SVG Version: 6.00 Build 0)  -->
<svg version="1.1" id="Layer_1" xmlns="http://www.w3.org/2000/svg" xmlns:xlink="http://www.w3.org/1999/xlink" x="0px" y="0px"
	 viewBox="0 0 32 32" style="enable-background:new 0 0 32 32;" xml:space="preserve">
<style type="text/css">
	.st0{fill:#FFFFFF;}
	.st1{opacity:0.3;fill:#FFFFFF;}
</style>
<g id="Rectangle_4">
	<g>
		<path class="st0" d="M19.3,5.5c-0.3-0.2-0.8-0.1-1.1,0.1l-9.9,7.1v2.5l9.6-6.9v15.4l-9.6-7v2.5l10,7.1c0.2,0.1,0.4,0.2,0.6,0.2
			s0.3,0,0.5-0.1c0.3-0.2,0.6-0.5,0.6-0.9V6.3C19.9,6,19.7,5.7,19.3,5.5z"/>
	</g>
</g>
<g id="Rectangle_2_copy_4">
	<g>
		<path class="st0" d="M12.2,13.1H6.4c-1.1,0-1.9,0.9-1.9,1.9v2c0,1.1,0.9,1.9,1.9,1.9h5.8c1.1,0,1.9-0.9,1.9-1.9v-2
			C14.1,14,13.2,13.1,12.2,13.1z M12.2,17H6.4v-2h5.8C12.2,15,12.2,17,12.2,17z"/>
	</g>
</g>
<g id="Rounded_Rectangle_4">
	<g>
		<path class="st0" d="M23.7,12.1c-0.6,0-1,0.4-1,1v5.8c0,0.6,0.4,1,1,1s1-0.4,1-1v-5.8C24.7,12.5,24.3,12.1,23.7,12.1z"/>
	</g>
</g>
<polygon class="st1" points="9.3,12.7 9.3,14.3 5.8,14.3 5.8,17.7 9.3,17.7 9.3,19.3 18.7,25.2 18.7,6.5 "/>
</svg>
