<?xml version="1.0" encoding="utf-8"?>
<!-- Generator: Adobe Illustrator 21.0.0, SVG Export Plug-In . SVG Version: 6.00 Build 0)  -->
<svg version="1.1" id="Layer_1" xmlns="http://www.w3.org/2000/svg" xmlns:xlink="http://www.w3.org/1999/xlink" x="0px" y="0px"
	 viewBox="0 0 32 32" style="enable-background:new 0 0 32 32;" xml:space="preserve">
<style type="text/css">
	.st0{fill-rule:evenodd;clip-rule:evenodd;fill:#FFFFFF;}
</style>
<g id="Rectangle_4">
	<g>
		<path class="st0" d="M19.4,5.1c-0.3-0.2-0.8-0.1-1.1,0.1L8,12.6v2.6l9.9-7.1v15.9L8,16.8v2.6l10.4,7.4c0.2,0.1,0.4,0.2,0.6,0.2
			c0.2,0,0.3,0,0.5-0.1c0.3-0.2,0.6-0.5,0.6-0.9V6C20,5.6,19.8,5.3,19.4,5.1z"/>
	</g>
</g>
<g id="Rectangle_2_copy_4">
	<g>
		<path class="st0" d="M12,13H6c-1.1,0-2,0.9-2,2v2c0,1.1,0.9,2,2,2h6c1.1,0,2-0.9,2-2v-2C14,13.9,13.1,13,12,13z M12,17H6v-2h6V17z
			"/>
	</g>
</g>
<g id="Rounded_Rectangle_4">
	<g>
		<path class="st0" d="M24,12c-0.6,0-1,0.4-1,1v6c0,0.6,0.4,1,1,1c0.6,0,1-0.4,1-1v-6C25,12.4,24.6,12,24,12z"/>
	</g>
</g>
</svg>
