<?xml version="1.0" encoding="utf-8"?>
<!-- Generator: Adobe Illustrator 21.0.0, SVG Export Plug-In . SVG Version: 6.00 Build 0)  -->
<svg version="1.1" id="Layer_1" xmlns="http://www.w3.org/2000/svg" xmlns:xlink="http://www.w3.org/1999/xlink" x="0px" y="0px"
	 viewBox="0 0 32 32" style="enable-background:new 0 0 32 32;" xml:space="preserve">
<style type="text/css">
	.st0{fill:#FFFFFF;}
</style>
<g id="Rectangle_2_copy_3_1_">
	<g>
		<path class="st0" d="M24.2,5.4h-2.4c-1.3,0-2.4,1.1-2.4,2.4v16.5c0,1.3,1.1,2.4,2.4,2.4h2.4c1.3,0,2.4-1.1,2.4-2.4V7.7
			C26.5,6.4,25.5,5.4,24.2,5.4z M24.2,24.3h-2.4V7.7h2.4V24.3z"/>
	</g>
</g>
<g id="Shape_3_1_">
	<g>
		<path class="st0" d="M21.3,14.9L8.5,5.5C8,5.4,7.5,5.3,7.2,5.5C6.7,5.7,6.5,6.2,6.5,6.6v18.8c0,0.5,0.2,0.9,0.7,1.1
			c0.1,0.2,0.4,0.2,0.5,0.2c0.2,0,0.5-0.1,0.7-0.2l12.9-9.4c0.4-0.2,0.5-0.6,0.5-1.1C21.7,15.4,21.6,15.2,21.3,14.9z M8.9,23V9
			l9.6,7L8.9,23z"/>
	</g>
</g>
</svg>
