<?xml version="1.0" encoding="utf-8"?>
<!-- Generator: Adobe Illustrator 21.0.0, SVG Export Plug-In . SVG Version: 6.00 Build 0)  -->
<svg version="1.1" id="Layer_1" xmlns="http://www.w3.org/2000/svg" xmlns:xlink="http://www.w3.org/1999/xlink" x="0px" y="0px"
	 viewBox="0 0 32 32" style="enable-background:new 0 0 32 32;" xml:space="preserve">
<style type="text/css">
	.st0{fill-rule:evenodd;clip-rule:evenodd;fill:#FFFFFF;}
</style>
<g id="Rectangle_2_copy_3_1_">
	<g>
		<path class="st0" d="M23,7h-2c-1.1,0-2,0.9-2,2v14c0,1.1,0.9,2,2,2h2c1.1,0,2-0.9,2-2V9C25,7.9,24.1,7,23,7z M23,23h-2V9h2V23z"/>
	</g>
</g>
<g id="Shape_3_1_">
	<g>
		<path class="st0" d="M20.6,15.1l-10.9-8C9.3,7,8.9,6.9,8.6,7.1C8.2,7.3,8,7.7,8,8v15.9c0,0.4,0.2,0.8,0.6,0.9C8.7,25,8.9,25,9,25
			c0.2,0,0.4-0.1,0.6-0.2l10.9-8c0.3-0.2,0.4-0.5,0.4-0.9S20.8,15.3,20.6,15.1z M10.1,21.9V10.1l8.1,5.9L10.1,21.9z"/>
	</g>
</g>
</svg>
