<?xml version="1.0" encoding="utf-8"?>
<!-- Generator: Adobe Illustrator 21.0.0, SVG Export Plug-In . SVG Version: 6.00 Build 0)  -->
<svg version="1.1" id="Layer_1" xmlns="http://www.w3.org/2000/svg" xmlns:xlink="http://www.w3.org/1999/xlink" x="0px" y="0px"
	 viewBox="0 0 32 32" style="enable-background:new 0 0 32 32;" xml:space="preserve">
<style type="text/css">
	.st0{fill:#FFFFFF;}
</style>
<g id="Rectangle_2_copy">
	<g>
		<path class="st0" d="M11.3,5.4H8.9c-1.3,0-2.4,1.1-2.4,2.4v16.5c0,1.3,1.1,2.4,2.4,2.4h2.4c1.3,0,2.4-1.1,2.4-2.4V7.7
			C13.6,6.4,12.6,5.4,11.3,5.4z M11.3,24.3H8.9V7.7h2.4V24.3z"/>
	</g>
</g>
<g id="Rectangle_2_copy_2">
	<g>
		<path class="st0" d="M23.1,5.4h-2.4c-1.3,0-2.4,1.1-2.4,2.4v16.5c0,1.3,1.1,2.4,2.4,2.4h2.4c1.3,0,2.4-1.1,2.4-2.4V7.7
			C25.4,6.4,24.4,5.4,23.1,5.4z M23.1,24.3h-2.4V7.7h2.4V24.3z"/>
	</g>
</g>
</svg>
