<svg width="124" height="124" viewBox="0 0 124 124" fill="none" xmlns="http://www.w3.org/2000/svg">
<circle cx="62" cy="62" r="62" fill="black" fill-opacity="0.3"/>
<path d="M49.8084 78.0795H56.1435C56.5941 78.0795 56.9519 77.7219 56.9519 77.2715V46.8079C56.9519 46.3576 56.5941 46 56.1435 46H49.8084C49.3578 46 49 46.3576 49 46.8079V77.2715C49 77.7219 49.3578 78.0795 49.8084 78.0795ZM65.9641 46.8079V77.2715C65.9641 77.7219 66.322 78.0795 66.7726 78.0795H73.1076C73.5583 78.0795 73.9161 77.7219 73.9161 77.2715V46.8079C73.9161 46.3576 73.5583 46 73.1076 46H66.7726C66.322 46 65.9641 46.3576 65.9641 46.8079Z" fill="white"/>
</svg>
