<?xml version="1.0" encoding="utf-8"?>
<!-- Generator: Adobe Illustrator 21.0.0, SVG Export Plug-In . SVG Version: 6.00 Build 0)  -->
<svg version="1.1" id="Layer_1" xmlns="http://www.w3.org/2000/svg" xmlns:xlink="http://www.w3.org/1999/xlink" x="0px" y="0px"
	 viewBox="0 0 32 32" style="enable-background:new 0 0 32 32;" xml:space="preserve">
<style type="text/css">
	.st0{fill-rule:evenodd;clip-rule:evenodd;fill:#FFFFFF;}
</style>
<g id="Rectangle_2_copy">
	<g>
		<path class="st0" d="M12,7h-2C8.9,7,8,7.9,8,9v14c0,1.1,0.9,2,2,2h2c1.1,0,2-0.9,2-2V9C14,7.9,13.1,7,12,7z M12,23h-2V9h2V23z"/>
	</g>
</g>
<g id="Rectangle_2_copy_2">
	<g>
		<path class="st0" d="M22,7h-2c-1.1,0-2,0.9-2,2v14c0,1.1,0.9,2,2,2h2c1.1,0,2-0.9,2-2V9C24,7.9,23.1,7,22,7z M22,23h-2V9h2V23z"/>
	</g>
</g>
</svg>
