<svg enable-background="new 0 0 140 140" viewBox="0 0 140 140" xmlns="http://www.w3.org/2000/svg"><g fill="#1fabe2"><path d="m70 132c-34.2 0-62-27.8-62-62s27.8-62 62-62 62 27.8 62 62-27.8 62-62 62z" opacity=".3"/><path d="m70 5c-35.9 0-65 29.1-65 65s29.1 65 65 65 65-29.1 65-65-29.1-65-65-65zm0 127c-34.2 0-62-27.8-62-62s27.8-62 62-62 62 27.8 62 62-27.8 62-62 62z"/><path d="m89.2 68.5-26.1-18.1c-.6-.4-1.4-.5-2-.1-.6.3-1.1 1-1.1 1.7v36.2c0 .7.4 1.4 1.1 1.7.3.1.6.2.9.2.4 0 .8-.1 1.1-.4l26.1-18.1c.5-.4.8-.9.8-1.5 0-.7-.3-1.3-.8-1.6zm-25.3 15.9v-28.8l20.8 14.4z"/></g></svg>