<?xml version="1.0" encoding="utf-8"?>
<!-- Generator: Adobe Illustrator 21.0.0, SVG Export Plug-In . SVG Version: 6.00 Build 0)  -->
<svg version="1.1" id="Layer_1" xmlns="http://www.w3.org/2000/svg" xmlns:xlink="http://www.w3.org/1999/xlink" x="0px" y="0px"
	 viewBox="0 0 32 32" style="enable-background:new 0 0 32 32;" xml:space="preserve">
<style type="text/css">
	.st0{opacity:0.302;}
	.st1{fill-rule:evenodd;clip-rule:evenodd;fill:#1FABE2;}
</style>
<g id="Rectangle_16" class="st0">
	<g>
		<path class="st1" d="M4,13h2v-2H4V13z M14,11v2h14v-2H14z M14,21h14v-2H14V21z M4,21h2v-2H4V21z"/>
	</g>
</g>
<g id="Rectangle_2_copy_8_1_">
	<g>
		<path class="st1" d="M6,9H4c-1.1,0-2,0.9-2,2v2c0,1.1,0.9,2,2,2h2c1.1,0,2-0.9,2-2v-2C8,9.9,7.1,9,6,9z M6,13H4v-2h2V13z M6,17H4
			c-1.1,0-2,0.9-2,2v2c0,1.1,0.9,2,2,2h2c1.1,0,2-0.9,2-2v-2C8,17.9,7.1,17,6,17z M6,21H4v-2h2V21z M28,9H14c-1.1,0-2,0.9-2,2v2
			c0,1.1,0.9,2,2,2h14c1.1,0,2-0.9,2-2v-2C30,9.9,29.1,9,28,9z M28,13H14v-2h14V13z M28,17H14c-1.1,0-2,0.9-2,2v2c0,1.1,0.9,2,2,2
			h14c1.1,0,2-0.9,2-2v-2C30,17.9,29.1,17,28,17z M28,21H14v-2h14V21z"/>
	</g>
</g>
</svg>
