<?xml version="1.0" encoding="utf-8"?>
<!-- Generator: Adobe Illustrator 21.0.0, SVG Export Plug-In . SVG Version: 6.00 Build 0)  -->
<svg version="1.1" id="Layer_1" xmlns="http://www.w3.org/2000/svg" xmlns:xlink="http://www.w3.org/1999/xlink" x="0px" y="0px"
	 viewBox="0 0 32 32" style="enable-background:new 0 0 32 32;" xml:space="preserve">
<style type="text/css">
	.st0{fill:#FFFFFF;}
</style>
<g id="Rectangle_2_copy_8_1_">
	<g>
		<path class="st0" d="M6.3,13.1H4.3c-1.1,0-1.9,0.9-1.9,1.9V17c0,1.1,0.9,1.9,1.9,1.9h1.9c1.1,0,1.9-0.9,1.9-1.9V15
			C8.2,14,7.3,13.1,6.3,13.1z M6.3,17H4.3V15h1.9V17z M27.7,13.1H14.1c-1.1,0-1.9,0.9-1.9,1.9V17c0,1.1,0.9,1.9,1.9,1.9h13.6
			c1.1,0,1.9-0.9,1.9-1.9V15C29.6,14,28.8,13.1,27.7,13.1z M27.7,17H14.1V15h13.6V17z M6.3,20.8H4.3c-1.1,0-1.9,0.9-1.9,1.9v1.9
			c0,1.1,0.9,1.9,1.9,1.9h1.9c1.1,0,1.9-0.9,1.9-1.9v-1.9C8.2,21.7,7.3,20.8,6.3,20.8z M6.3,24.7H4.3v-1.9h1.9V24.7z M27.7,20.8
			H14.1c-1.1,0-1.9,0.9-1.9,1.9v1.9c0,1.1,0.9,1.9,1.9,1.9h13.6c1.1,0,1.9-0.9,1.9-1.9v-1.9C29.6,21.7,28.8,20.8,27.7,20.8z
			 M27.7,24.7H14.1v-1.9h13.6V24.7z M6.3,5.4H4.3c-1.1,0-1.9,0.9-1.9,1.9v1.9c0,1.1,0.9,1.9,1.9,1.9h1.9c1.1,0,1.9-0.9,1.9-1.9V7.3
			C8.2,6.2,7.3,5.4,6.3,5.4z M6.3,9.3H4.3V7.3h1.9V9.3z M27.7,5.4H14.1c-1.1,0-1.9,0.9-1.9,1.9v1.9c0,1.1,0.9,1.9,1.9,1.9h13.6
			c1.1,0,1.9-0.9,1.9-1.9V7.3C29.6,6.2,28.8,5.4,27.7,5.4z M27.7,9.3H14.1V7.3h13.6V9.3z"/>
	</g>
</g>
</svg>
