<?xml version="1.0" encoding="utf-8"?>
<!-- Generator: Adobe Illustrator 21.0.0, SVG Export Plug-In . SVG Version: 6.00 Build 0)  -->
<svg version="1.1" id="Layer_1" xmlns="http://www.w3.org/2000/svg" xmlns:xlink="http://www.w3.org/1999/xlink" x="0px" y="0px"
	 viewBox="0 0 32 32" style="enable-background:new 0 0 32 32;" xml:space="preserve">
<style type="text/css">
	.st0{fill-rule:evenodd;clip-rule:evenodd;fill:#FFFFFF;}
</style>
<g id="Rectangle_2_copy_3">
	<g>
		<path class="st0" d="M12,7h-2C8.9,7,8,7.9,8,9v14c0,1.1,0.9,2,2,2h2c1.1,0,2-0.9,2-2V9C14,7.9,13.1,7,12,7z M12,23h-2V9h2V23z"/>
	</g>
</g>
<g id="Shape_3">
	<g>
		<path class="st0" d="M24.4,7.1c-0.3-0.2-0.8-0.1-1.1,0.1l-10.9,8C12.2,15.3,12,15.7,12,16s0.2,0.7,0.4,0.9l10.9,8
			c0.2,0.1,0.4,0.2,0.6,0.2c0.2,0,0.3,0,0.5-0.1c0.3-0.2,0.6-0.5,0.6-0.9V8C25,7.7,24.8,7.3,24.4,7.1z M22.9,21.9L14.8,16l8.1-5.9
			V21.9z"/>
	</g>
</g>
</svg>
