<?xml version="1.0" encoding="utf-8"?>
<!-- Generator: Adobe Illustrator 21.0.0, SVG Export Plug-In . SVG Version: 6.00 Build 0)  -->
<svg version="1.1" id="Layer_1" xmlns="http://www.w3.org/2000/svg" xmlns:xlink="http://www.w3.org/1999/xlink" x="0px" y="0px"
	 viewBox="0 0 32 32" style="enable-background:new 0 0 32 32;" xml:space="preserve">
<style type="text/css">
	.st0{fill:#FFFFFF;}
	.st1{opacity:0.3;fill:#FFFFFF;enable-background:new    ;}
</style>
<g id="Rectangle_2_copy_3">
	<g>
		<path class="st0" d="M11.2,5.4H8.9c-1.3,0-2.3,1.1-2.3,2.3v16.4c0,1.3,1.1,2.3,2.3,2.3h2.3c1.3,0,2.3-1.1,2.3-2.3V7.8
			C13.6,6.5,12.5,5.4,11.2,5.4z M11.2,24.2H8.9V7.8h2.3V24.2z"/>
	</g>
</g>
<g id="Shape_3">
	<g>
		<path class="st0" d="M25.8,5.5c-0.4-0.2-0.9-0.1-1.3,0.1L11.7,15c-0.2,0.1-0.5,0.6-0.5,0.9s0.2,0.8,0.5,1.1l12.8,9.4
			c0.2,0.1,0.5,0.2,0.7,0.2s0.4,0,0.6-0.1c0.4-0.2,0.7-0.6,0.7-1.1V6.6C26.5,6.2,26.2,5.8,25.8,5.5z M24,22.9L14.5,16L24,9.1V22.9z"
			/>
	</g>
</g>
<rect x="8.4" y="7.2" class="st1" width="3.2" height="17.4"/>
<polygon class="st1" points="25.6,24.4 14,17.7 14,14.3 25.6,7.2 "/>
</svg>
