<?xml version="1.0" encoding="utf-8"?>
<svg version="1.1" id="Layer_1" xmlns="http://www.w3.org/2000/svg" xmlns:xlink="http://www.w3.org/1999/xlink" x="0px" y="0px" viewBox="0 0 32 32" style="enable-background:new 0 0 32 32;" xml:space="preserve"><style type="text/css">.st0{fill:#FFFFFF;}</style><path class="st0" d="M16.8,21c0.5,0,0.9-0.4,0.9-0.9v-3.2h3.2c0.5,0,0.9-0.4,0.9-0.9s-0.4-0.9-0.9-0.9h-3.2v-3.2 c0-0.5-0.4-0.9-0.9-0.9s-0.9,0.4-0.9,1v3.1h-3.2c-0.5,0-0.9,0.4-0.9,0.9s0.4,0.9,1,0.9h3.2v3.2C15.9,20.7,16.2,21,16.8,21z M25.2,10.5V6.8c0-0.5-0.4-0.9-0.9-0.9s-0.9,0.4-0.9,0.9v1.5c-1.8-1.5-4.1-2.4-6.5-2.4C11.3,5.9,6.8,10.4,6.8,16s4.5,10.1,10.1,10.1 c3.2,0,6.2-1.5,8.1-4.1c0.3-0.4,0.2-1-0.2-1.3c-0.4-0.3-1-0.2-1.2,0.2c-1.6,2.1-4.1,3.4-6.7,3.4c-4.6,0-8.3-3.7-8.3-8.3 s3.7-8.3,8.3-8.3c1.9,0,3.7,0.7,5.2,1.9h-1.5c-0.5,0-0.9,0.4-0.9,0.9s0.4,0.9,0.9,0.9h3.7C24.8,11.4,25.2,11,25.2,10.5z"/></svg>
