<svg enable-background="new 0 0 32 32" viewBox="0 0 32 32" xmlns="http://www.w3.org/2000/svg"><path d="m21.073007 16c0-.5-.4-.9-.9-.9h-8.300001c-.5 0-.9.4-.9.9s.4.9.9.9h8.2c.6 0 1.000001-.4 1.000001-.9m-5.200001-10.1c-2.4 0-4.7.9-6.5 2.4v-1.5c0-.5-.4-.9-.9-.9s-.899999.4-.899999.9v3.7c0 .5.4.9.9.9h3.7c.5 0 .9-.4.9-.9s-.4-.9-.9-.9h-1.5c1.5-1.2 3.3-1.9 5.2-1.9 4.6 0 8.3 3.7 8.3 8.3s-3.7 8.3-8.3 8.3c-2.6 0-5.1-1.3-6.7-3.4-.200001-.4-.800001-.5-1.200001-.199999-.399999.299999-.5.899999-.2 1.299999 1.9 2.6 4.9 4.1 8.1 4.1 5.600001 0 10.100001-4.5 10.100001-10.1s-4.5-10.1-10.100001-10.1" fill="#fff"/></svg>