<?xml version="1.0" encoding="utf-8" standalone="yes"?><!-- Generator: Adobe Illustrator 26.3.1, SVG Export Plug-In . SVG Version: 6.00 Build 0)  --><svg xmlns="http://www.w3.org/2000/svg" xmlns:xlink="http://www.w3.org/1999/xlink" version="1.1" id="Layer_1" x="0px" y="0px" viewBox="0 0 32 32" style="enable-background:new 0 0 32 32;zoom: 1;" xml:space="preserve"><style type="text/css">
        .st0{fill:#FFFFFF;}
</style><path d="M21.073007,16 c0,-0.5 -0.4,-0.9 -0.9,-0.9 H11.873006 C11.373006,15.1 10.973006,15.5 10.973006,16 s0.4,0.9 0.9,0.9 h8.2 C20.673006,16.9 21.073007,16.5 21.073007,16 M15.873006,5.9 c-2.4,0 -4.7,0.9 -6.5,2.4 V6.8 c0,-0.5 -0.4,-0.9 -0.9,-0.9 S7.573007,6.3 7.573007,6.8 v3.7 c0,0.5 0.4,0.9 0.9,0.9 h3.7 c0.5,0 0.9,-0.4 0.9,-0.9 s-0.4,-0.9 -0.9,-0.9 h-1.5 c1.5,-1.2 3.3,-1.9 5.2,-1.9 c4.6,0 8.3,3.7 8.3,8.3 s-3.7,8.3 -8.3,8.3 c-2.6,0 -5.1,-1.3 -6.7,-3.4 C8.973006,20.5 8.373006,20.4 7.973006,20.700001 C7.573007,21 7.473006,21.6 7.773006,22 c1.9,2.6 4.9,4.1 8.1,4.1 C21.473007,26.1 25.973007,21.6 25.973007,16 S21.473007,5.9 15.873006,5.9 " visibility="visible" class="st0"></path></svg>