<?xml version="1.0" encoding="utf-8" standalone="yes"?><!-- Generator: Adobe Illustrator 26.3.1, SVG Export Plug-In . SVG Version: 6.00 Build 0) --><svg xmlns="http://www.w3.org/2000/svg" xmlns:xlink="http://www.w3.org/1999/xlink" version="1.1" id="Layer_1" x="0px" y="0px" viewBox="0 0 32 32" style="enable-background:new 0 0 32 32;zoom: 1;" xml:space="preserve"><style type="text/css">.st0{fill:#FFFFFF;}
</style><path class="st0" d="M20.1,15.069954 h-3.2 v-3.2  c0,-0.5 -0.4,-0.9 -0.9,-0.9  s-0.9,0.4 -0.9,0.9  v3.2  h-3.2  c-0.5,0 -0.9,0.4 -0.9,0.9  s0.4,0.9 0.9,0.9  h3.2  v3.2  c0,0.5 0.4,0.9 0.9,0.9  s0.9,-0.4 0.9,-0.9  v-3.2  h3.2 c0.5,0 0.9,-0.4 0.9,-0.9 S20.6,15.069954 20.1,15.069954 M22.700001,20.869953 c-1.6,2.1 -4,3.4 -6.7,3.4 c-4.6,0 -8.3,-3.7 -8.3,-8.3 s3.7,-8.3 8.3,-8.3 c1.9,0 3.8,0.7 5.2,1.9 h-1.5 c-0.5,0 -0.9,0.4 -0.9,0.9 s0.4,0.9 0.9,0.9 h3.7 c0.5,0 0.9,-0.4 0.9,-0.9 V6.769954 c0,-0.5 -0.4,-0.9 -0.9,-0.9 s-0.9,0.4 -0.9,0.9 v1.5 c-1.8,-1.5 -4.1,-2.4 -6.5,-2.4 C10.5,5.869954 6,10.369953 6,15.969954 s4.5,10.1 10.1,10.1 c3.2,0 6.2,-1.5 8.1,-4.1 c0.3,-0.4 0.2,-1 -0.2,-1.3 C23.6,20.369953 23,20.469954 22.700001,20.869953 "></path></svg>