<?xml version="1.0" encoding="utf-8"?>
<!-- Generator: Adobe Illustrator 21.0.0, SVG Export Plug-In . SVG Version: 6.00 Build 0)  -->
<svg version="1.1" id="Layer_1" xmlns="http://www.w3.org/2000/svg" xmlns:xlink="http://www.w3.org/1999/xlink" x="0px" y="0px"
	 viewBox="0 0 80 80" style="enable-background:new 0 0 80 80;" xml:space="preserve">
<style type="text/css">
	.st0{opacity:0.6;}
	.st1{fill-rule:evenodd;clip-rule:evenodd;fill:#FFFFFF;}
</style>
<g id="Ellipse_3_copy_2" class="st0">
	<g>
		<path class="st1" d="M40,5C20.7,5,5,20.7,5,40s15.7,35,35,35c19.3,0,35-15.7,35-35S59.3,5,40,5z M40,72C22.3,72,8,57.7,8,40
			C8,22.3,22.3,8,40,8c17.7,0,32,14.3,32,32C72,57.7,57.7,72,40,72z"/>
	</g>
</g>
<g id="Ellipse_3">
	<g>
		<path class="st1" d="M54,40.3c0-0.1,0-0.2,0-0.3h-0.1c-0.2-0.6-0.8-1-1.4-1s-1.2,0.4-1.4,1H51c0,6.1-4.9,11-11,11s-11-4.9-11-11
			c0-6.1,4.9-11,11-11c0.7,0,1.4,0.1,2,0.2v3.3c0,0.2,0.1,0.3,0.3,0.4c0.1,0,0.2,0.1,0.3,0.1c0.1,0,0.2,0,0.3-0.1l7.8-4.5
			c0.2-0.1,0.2-0.2,0.2-0.4s-0.1-0.3-0.2-0.4l-7.8-4.5c-0.2-0.1-0.4-0.1-0.6,0c-0.2,0.1-0.3,0.2-0.3,0.4v2.7c-0.7-0.1-1.3-0.2-2-0.2
			c-7.7,0-14,6.3-14,14c0,7.7,6.3,14,14,14c7.4,0,13.5-5.8,14-13.2c0-0.1,0-0.2,0-0.3C54,40.4,54,40.4,54,40.3z"/>
	</g>
</g>
</svg>
