<svg width="40" height="35" viewBox="0 0 40 35" fill="none" xmlns="http://www.w3.org/2000/svg">
<path d="M23.2812 0.19865C13.4473 -0.185456 5.33635 7.69534 5.33635 17.4437C5.33635 17.8013 5.37611 18.1457 5.40261 18.5033L2.92426 16.0265C2.79173 15.894 2.56642 15.894 2.42064 16.0265L0.339878 18.1059C0.207345 18.2384 0.207345 18.4636 0.339878 18.6092L7.07252 25.3377C7.20506 25.4702 7.43036 25.4702 7.57614 25.3377L14.3088 18.6092C14.4413 18.4768 14.4413 18.2516 14.3088 18.1059L12.228 16.0265C12.0955 15.894 11.8702 15.894 11.7244 16.0265L9.04725 18.702C9.00749 18.2914 8.96774 17.8675 8.96774 17.4569C8.96774 9.09931 16.5353 2.49004 25.1764 4.09269C30.597 5.09931 34.9573 9.45693 35.9646 14.8741C37.5682 23.5099 30.9416 31.0728 22.5921 31.0728C19.5968 31.0728 16.6679 30.0794 14.2955 28.2649C14.057 28.0794 13.7256 28.1192 13.5401 28.3443L11.9099 30.3046C11.7112 30.543 11.7377 30.9139 11.9895 31.0993C15.0112 33.4437 18.7486 34.7285 22.5788 34.7285C32.3199 34.7285 40.2189 26.6092 39.8345 16.7947C39.4899 7.9205 32.1477 0.582756 23.268 0.238385L23.2812 0.19865ZM19.186 12.7814V22.4768C19.186 22.7549 19.4908 22.9271 19.7161 22.7814L27.9199 17.9337C28.1584 17.8013 28.1584 17.4569 27.9199 17.3245L19.7161 12.4768C19.4776 12.3311 19.186 12.5033 19.186 12.7814V12.7814Z" fill="white"/>
</svg>
