<svg width="31" height="32" viewBox="0 0 31 32" fill="none" xmlns="http://www.w3.org/2000/svg">
<path d="M30.2306 13.5431H10.1652L19.0051 4.70865C19.2967 4.41726 19.2967 3.94044 19.0051 3.64905L16.1955 0.841102C15.9039 0.549711 15.4268 0.549711 15.1352 0.841102L0.225301 15.7418C-0.0662705 16.0332 -0.0662705 16.51 0.225301 16.8014L15.1484 31.7153C15.44 32.0067 15.9171 32.0067 16.2087 31.7153L19.0184 28.9073C19.31 28.6159 19.31 28.1391 19.0184 27.8477L10.1785 19.0133H30.2439C30.6547 19.0133 30.9993 18.6822 30.9993 18.2583V14.2848C30.9993 13.8742 30.668 13.5298 30.2439 13.5298L30.2306 13.5431Z" fill="white"/>
</svg>
