<?xml version="1.0" encoding="utf-8"?>
<!-- Generator: Adobe Illustrator 21.0.0, SVG Export Plug-In . SVG Version: 6.00 Build 0)  -->
<svg version="1.1" id="Layer_1" xmlns="http://www.w3.org/2000/svg" xmlns:xlink="http://www.w3.org/1999/xlink" x="0px" y="0px"
	 viewBox="0 0 32 32" style="enable-background:new 0 0 32 32;" xml:space="preserve">
<style type="text/css">
	.st0{fill:#ffc0cb;}
</style>
<g id="Shape_4">
	<g>
		<path class="st0" d="M25.6,13.8l-1.4-0.3c-0.2-0.5-0.4-1-0.6-1.4l0.9-1.3c0.4-0.5,0.3-1.3-0.1-1.7L23,7.7c-0.3-0.3-0.6-0.4-1-0.4
			c-0.3,0-0.6,0.1-0.8,0.3L20,8.5c-0.5-0.3-1-0.5-1.5-0.6l-0.3-1.4c0-0.6-0.6-1.1-1.3-1.1H15c-0.7,0-1.2,0.5-1.3,1.1L13.5,8
			c-0.5,0.2-1,0.4-1.4,0.6l-1.3-0.9c-0.2-0.2-0.5-0.3-0.8-0.3c-0.4,0-0.7,0.1-1,0.4L7.8,9.1c-0.5,0.5-0.5,1.2-0.1,1.7l0.9,1.3
			c-0.3,0.5-0.5,1-0.6,1.4l-1.4,0.3c-0.7,0-1.2,0.6-1.2,1.3V17c0,0.7,0.5,1.2,1.1,1.3L8,18.5c0.2,0.5,0.4,1,0.6,1.4l-0.9,1.3
			c-0.4,0.5-0.3,1.3,0.1,1.7l1.4,1.4c0.3,0.3,0.6,0.4,1,0.4c0.3,0,0.6-0.1,0.8-0.3l1.3-0.9c0.5,0.2,1,0.4,1.4,0.6l0.3,1.4
			c0.1,0.7,0.7,1.1,1.3,1.1H17c0.7,0,1.2-0.5,1.3-1.1l0.3-1.4c0.5-0.2,1-0.4,1.4-0.6l1.3,0.9c0.2,0.2,0.5,0.3,0.8,0.3
			c0.4,0,0.7-0.1,1-0.4l1.4-1.4c0.5-0.5,0.5-1.2,0.1-1.7L23.5,20c0.3-0.5,0.5-1,0.6-1.4l1.4-0.3c0.7-0.1,1.1-0.7,1.1-1.3V15
			C26.6,14.5,26.1,13.9,25.6,13.8z M24.6,16.9L24.6,16.9C24.6,17,24.6,17,24.6,16.9l-1.8,0.4c-0.2,0-0.4,0.2-0.4,0.4
			c-0.2,0.6-0.4,1.2-0.7,1.6c-0.1,0.2-0.1,0.4,0,0.6l1,1.4v0.1l-1.2,1.2h-0.1c0,0,0,0-0.1,0l-1.4-1c-0.2-0.1-0.4-0.1-0.6,0
			c-0.5,0.3-1.1,0.6-1.6,0.7c-0.2,0.1-0.4,0.2-0.4,0.4L17,24.5c0,0.1-0.1,0.1-0.1,0.1h-1.7c-0.1,0-0.1,0-0.1-0.1l-0.3-1.7
			c0-0.2-0.2-0.4-0.4-0.4c-0.6-0.2-1.2-0.4-1.6-0.7c-0.1,0-0.2-0.1-0.3-0.1c-0.1,0-0.2,0-0.3,0.1l-1.4,1c0,0,0,0-0.1,0
			c0,0,0,0-0.1,0l-1.2-1.2v-0.1l1-1.4c0.1-0.2,0.1-0.4,0-0.6C10,19,9.7,18.4,9.6,17.8c-0.1-0.2-0.2-0.4-0.4-0.4L7.5,17
			c-0.1,0-0.1-0.1-0.1-0.1v-1.7c0-0.1,0-0.1,0.1-0.1l1.7-0.2c0.2,0,0.4-0.2,0.5-0.4c0.2-0.6,0.4-1.2,0.7-1.6c0.1-0.2,0.1-0.4,0-0.6
			l-1-1.4v-0.1l1.2-1.2h0.1c0,0,0,0,0.1,0l1.4,1c0.2,0.1,0.4,0.1,0.6,0c0.5-0.3,1.1-0.6,1.6-0.7c0.2-0.1,0.4-0.2,0.4-0.4L15,7.5
			c0-0.1,0.1-0.1,0.1-0.1h1.7c0.1,0,0.1,0,0.1,0.1l0.2,1.7c0,0.2,0.2,0.4,0.4,0.5c0.6,0.2,1.2,0.4,1.7,0.7c0.2,0.1,0.4,0.1,0.6,0
			l1.4-1c0,0,0,0,0.1,0c0,0,0,0,0.1,0l1.2,1.2v0.1l-1,1.4c-0.1,0.2-0.1,0.4,0,0.6c0.3,0.5,0.6,1.1,0.7,1.6c0.1,0.2,0.2,0.4,0.4,0.4
			l1.6,0.3c0.1,0,0.1,0.1,0.1,0.1v1.8H24.6z M16,11.5c-2.5,0-4.5,2-4.5,4.5s2,4.5,4.5,4.5s4.5-2,4.5-4.5S18.5,11.5,16,11.5z
			 M16,18.8c-1.5,0-2.8-1.3-2.8-2.8s1.3-2.8,2.8-2.8s2.8,1.3,2.8,2.8S17.5,18.8,16,18.8z"/>
	</g>
</g>
</svg>
