<?xml version="1.0" encoding="utf-8"?>
<!-- Generator: Adobe Illustrator 21.0.0, SVG Export Plug-In . SVG Version: 6.00 Build 0)  -->
<svg version="1.1" id="Layer_1" xmlns="http://www.w3.org/2000/svg" xmlns:xlink="http://www.w3.org/1999/xlink" x="0px" y="0px"
	 viewBox="0 0 32 32" style="enable-background:new 0 0 32 32;" xml:space="preserve">
<style type="text/css">
	.st0{opacity:0.302;}
	.st1{fill-rule:evenodd;clip-rule:evenodd;fill:#1FABE2;}
</style>
<g id="Ellipse_1_copy" class="st0">
	<g>
		<path class="st1" d="M23.9,12.8c-0.5-1.1-0.7-2.3-1.5-3.1C21.5,8.8,20.1,8.4,19,8c-1-0.4-1.8-1-3-1c-1.2,0-2.2,0.7-3.3,1.1
			c-1.1,0.5-2.2,0.7-3.1,1.5s-1,1.9-1.5,3C7.7,13.7,7,14.7,7,16c0,1.3,0.6,2.1,1,3.2c0.5,1.1,0.8,2.4,1.7,3.2c0.8,0.8,1.9,1,3,1.5
			c1.1,0.4,2.1,1.1,3.3,1.1c1.2,0,2.4-0.7,3.5-1.2c1.1-0.4,2-0.6,2.9-1.4c0.9-0.9,1.1-2,1.5-3.2c0.4-1,1.2-2.1,1.2-3.2
			C25,14.8,24.3,13.8,23.9,12.8z M16,20c-2.2,0-4-1.8-4-4c0-2.2,1.8-4,4-4c2.2,0,4,1.8,4,4C20,18.2,18.2,20,16,20z"/>
	</g>
</g>
<g id="Shape_4_1_">
	<g>
		<path class="st1" d="M25.9,13.7l-1.5-0.3c-0.2-0.5-0.4-1-0.6-1.5l0.9-1.3c0.4-0.5,0.3-1.3-0.1-1.8l-1.4-1.4
			c-0.3-0.3-0.6-0.4-1-0.4c-0.3,0-0.6,0.1-0.8,0.3l-1.3,0.9c-0.5-0.3-1-0.5-1.6-0.6l-0.3-1.5C18.2,5.5,17.6,5,16.9,5H15
			c-0.7,0-1.2,0.5-1.3,1.1l-0.3,1.6c-0.5,0.2-1,0.4-1.5,0.6l-1.3-0.9c-0.2-0.2-0.5-0.3-0.8-0.3c-0.4,0-0.7,0.1-1,0.4L7.5,8.9
			C7,9.4,7,10.1,7.4,10.7L8.3,12c-0.3,0.5-0.5,1-0.6,1.5l-1.5,0.3C5.5,13.8,5,14.4,5,15.1V17c0,0.7,0.5,1.2,1.1,1.3l1.6,0.3
			c0.2,0.5,0.4,1,0.6,1.5l-0.9,1.3c-0.4,0.5-0.3,1.3,0.1,1.8l1.4,1.4c0.3,0.3,0.6,0.4,1,0.4c0.3,0,0.6-0.1,0.8-0.3l1.3-0.9
			c0.5,0.2,1,0.4,1.5,0.6l0.3,1.5c0.1,0.7,0.7,1.1,1.3,1.1H17c0.7,0,1.2-0.5,1.3-1.1l0.3-1.5c0.5-0.2,1-0.4,1.5-0.6l1.3,0.9
			c0.2,0.2,0.5,0.3,0.8,0.3c0.4,0,0.7-0.1,1-0.4l1.4-1.4c0.5-0.5,0.5-1.2,0.1-1.8l-0.9-1.3c0.3-0.5,0.5-1,0.6-1.5l1.5-0.3
			c0.7-0.1,1.1-0.7,1.1-1.3V15C27,14.4,26.5,13.8,25.9,13.7z M24.9,16.9L24.9,16.9c0,0.1,0,0.1-0.1,0.1L23,17.3
			c-0.2,0-0.4,0.2-0.4,0.4c-0.2,0.6-0.4,1.2-0.7,1.7c-0.1,0.2-0.1,0.4,0,0.6l1,1.4c0,0,0,0.1,0,0.1l-1.2,1.2c0,0-0.1,0-0.1,0
			c0,0,0,0-0.1,0l-1.4-1c-0.2-0.1-0.4-0.1-0.6,0c-0.5,0.3-1.1,0.6-1.7,0.7c-0.2,0.1-0.4,0.2-0.4,0.4L17,24.8c0,0.1-0.1,0.1-0.1,0.1
			h-1.8c-0.1,0-0.1,0-0.1-0.1L14.7,23c0-0.2-0.2-0.4-0.4-0.4c-0.6-0.2-1.2-0.4-1.7-0.7c-0.1,0-0.2-0.1-0.3-0.1c-0.1,0-0.2,0-0.3,0.1
			l-1.5,1c0,0,0,0-0.1,0c0,0,0,0-0.1,0l-1.2-1.2c0,0,0-0.1,0-0.1l1-1.4c0.1-0.2,0.1-0.4,0-0.6c-0.3-0.5-0.6-1.1-0.7-1.7
			c-0.1-0.2-0.2-0.4-0.4-0.4L7.2,17c-0.1,0-0.1-0.1-0.1-0.1v-1.8c0-0.1,0-0.1,0.1-0.1L9,14.8c0.2,0,0.4-0.2,0.5-0.4
			c0.2-0.6,0.4-1.2,0.7-1.7c0.1-0.2,0.1-0.4,0-0.6l-1-1.5c0,0,0-0.1,0-0.1l1.2-1.2c0,0,0.1,0,0.1,0c0,0,0,0,0.1,0l1.4,1
			c0.2,0.1,0.4,0.1,0.6,0c0.5-0.3,1.1-0.6,1.7-0.7c0.2-0.1,0.4-0.2,0.4-0.4L15,7.2c0-0.1,0.1-0.1,0.1-0.1h1.8c0.1,0,0.1,0,0.1,0.1
			L17.2,9c0,0.2,0.2,0.4,0.4,0.5c0.6,0.2,1.2,0.4,1.8,0.7c0.2,0.1,0.4,0.1,0.6,0l1.4-1c0,0,0,0,0.1,0c0,0,0,0,0.1,0l1.2,1.2
			c0,0,0,0.1,0,0.1l-1,1.4c-0.1,0.2-0.1,0.4,0,0.6c0.3,0.5,0.6,1.1,0.7,1.7c0.1,0.2,0.2,0.4,0.4,0.4l1.7,0.3c0.1,0,0.1,0.1,0.1,0.1
			V16.9z M16,11.3c-2.6,0-4.7,2.1-4.7,4.7c0,2.6,2.1,4.7,4.7,4.7c2.6,0,4.7-2.1,4.7-4.7C20.7,13.4,18.6,11.3,16,11.3z M16,18.9
			c-1.6,0-2.9-1.3-2.9-2.9c0-1.6,1.3-2.9,2.9-2.9c1.6,0,2.9,1.3,2.9,2.9C18.9,17.6,17.6,18.9,16,18.9z"/>
	</g>
</g>
</svg>
