<?xml version="1.0" encoding="UTF-8"?>
<!DOCTYPE svg PUBLIC "-//W3C//DTD SVG 1.1//EN"
  "http://www.w3.org/Graphics/SVG/1.1/DTD/svg11.dtd">
<!-- Created with Inkpad (http://www.taptrix.com/) --><svg xmlns:inkpad="http://taptrix.com/inkpad/svg_extensions" height="691pt" xmlns:xlink="http://www.w3.org/1999/xlink" xmlns="http://www.w3.org/2000/svg" width="691pt" version="1.1" viewBox="0,0,691,691">
<defs/>
<g id="Untitled" inkpad:layerName="Untitled">
<g opacity="1">
<path d="M0+0M671.715+411.319L671.821+345.21C671.821+345.21+576.699+413.279+355.755+412.979C355.755+412.979+155.472+420.947+19.2537+348.493L19.1714+408.369C19.1714+408.369+47.9632+486.88+353.615+495.53C353.615+495.53+589.508+495.856+671.715+411.319" opacity="1" fill="#733121"/>
<path d="M0+0M671.715+518.803L671.821+452.694C671.821+452.694+576.699+520.763+355.755+520.463C355.755+520.463+155.472+528.431+19.2537+455.977L19.1714+515.853C19.1714+515.853+47.9632+594.363+353.615+603.014C353.615+603.014+589.508+603.34+671.715+518.803" opacity="1" fill="#733121"/>
<path d="M0+0M672.104+219.499C672.104+219.499+577.035+290.269+356.022+290.002C356.022+290.002+155.717+298.344+19.5381+222.912L19.463+303.572C19.463+303.572+48.2226+385.299+353.848+394.344C353.848+394.344+635.238+386.397+672.004+306.543L672.103+219.499" opacity="1" fill="#733121"/>
<path d="M0+0M29.5379+194.948C16.8118+216.338-3.99512+265.83+47.3186+271.444C47.3186+271.444+65.5087+275.426+81.9846+304.365C81.9846+304.365+90.2366+335.303+125.365+316.82C125.365+316.82+162.777+294.925+185.493+313.536C185.493+313.536+217.039+354.106+249.477+326.02C281.916+297.935+304.675+273.534+303.024+385.056C303.024+385.056+295.269+415.985+328.297+422.218C328.297+422.218+358.669+426.444+360.868+383.062C360.868+383.062+373.532+285.836+404.475+312.737C404.475+312.737+438.195+367.873+458.262+347.654C478.329+327.436+472.662+308.742+511.873+321.197C511.873+321.197+574.863+343.497+574.884+307.272C574.905+271.047+586.72+261.638+600.993+267.586C615.266+273.534+629.966+314.725+639.983+271.415C642.222+261.735+647.99+251.572+657.738+269.326C667.485+287.081+687.076+260.975+670.158+210.035C653.24+159.094+522.995+124.946+347.963+124.74C172.903+124.498+63.2031+138.361+29.5379+194.948Z" opacity="1" fill="#e08fbc"/>
<path d="M0+0M269.702+99.3601C269.548+99.4831+269.458+99.5497+269.458+99.5497C274.645+102.937+284.707+105.88+284.707+105.88C274.267+108.099+264.314+109.719+264.314+109.719C267.781+116.738+274.849+120.494+274.849+120.494C264.261+120.491+255.103+118.66+255.103+118.66C251.171+125.902+252.039+138.117+252.039+138.117C244.464+130.434+244.279+123.913+244.279+123.913C244.279+123.913+238.008+133.225+232.558+139.388C232.558+139.388+238.663+125.929+239.126+118.841C239.126+118.841+235.494+121.266+229.498+122.222C221.878+130.668+219.411+141.021+226.188+154.722C237.906+178.41+277.434+194.443+292.705+186.889C307.976+179.335+319.215+138.188+307.497+114.5C298.806+96.9323+285.274+94.7746+269.702+99.3601" opacity="1" fill="#d20a11"/>
<path d="M0+0M239.126+118.841C238.663+125.929+232.558+139.388+232.558+139.388C238.008+133.225+244.279+123.914+244.279+123.914C244.279+123.914+244.464+130.434+252.039+138.117C252.039+138.117+251.171+125.902+255.103+118.66C255.103+118.66+264.261+120.491+274.849+120.494C274.849+120.494+267.781+116.738+264.314+109.719C264.314+109.719+274.267+108.099+284.707+105.88C284.707+105.88+274.645+102.937+269.458+99.5497C269.458+99.5497+269.548+99.4832+269.702+99.3603C270.649+98.6032+274.316+95.4643+278.762+88.9607C273.748+92.1058+264.43+91.6957+258.216+96.4125C254.377+99.3282+253.459+101.301+251.984+103.389C243.924+92.819+231.174+88.5178+230.565+88.3151C229.224+87.8731+227.781+88.6021+227.336+89.943C226.892+91.2846+227.622+92.7309+228.96+93.1766C229.093+93.2182+240.482+97.0899+247.62+106.124C245.022+106.626+241.147+107.719+237.996+110.062C230.448+115.67+223.002+122.559+223.002+122.559C225.388+122.688+227.563+122.531+229.498+122.222C235.494+121.266+239.126+118.841+239.126+118.841" opacity="1" fill="#007c40"/>
<path d="M0+0M299.964+134.916C299.785+136.571+297.896+137.241+296.571+136.369C295.519+135.663+295.188+134.426+295.03+133.244C294.936+132.528+294.719+131.174+295.399+130.675C296.302+130.013+297.701+131.294+298.347+131.862C299.189+132.609+300.093+133.717+299.964+134.916" opacity="1" fill="#ffffff"/>
<path d="M0+0M288.042+123.489C286.82+123.146+286.125+122.073+285.61+120.995C285.302+120.344+284.676+119.123+285.171+118.436C285.822+117.526+287.55+118.314+288.339+118.656C289.375+119.105+290.574+119.882+290.823+121.061C291.162+122.692+289.568+123.911+288.042+123.489" opacity="1" fill="#ffffff"/>
<path d="M0+0M300.88+155.273C300.501+156.894+298.54+157.328+297.337+156.299C296.376+155.472+296.2+154.204+296.189+153.01C296.181+152.29+296.133+150.916+296.872+150.505C297.848+149.958+299.079+151.399+299.65+152.046C300.397+152.888+301.156+154.097+300.88+155.273" opacity="1" fill="#ffffff"/>
<path d="M0+0M288.034+143.59C287.856+145.245+285.966+145.914+284.641+145.044C283.587+144.338+283.256+143.102+283.101+141.917C283.006+141.203+282.79+139.847+283.472+139.347C284.373+138.687+285.772+139.967+286.415+140.537C287.262+141.282+288.164+142.391+288.034+143.59" opacity="1" fill="#ffffff"/>
<path d="M0+0M271.648+135.017C271.517+136.68+269.651+137.405+268.303+136.575C267.225+135.906+266.857+134.678+266.662+133.498C266.545+132.788+266.285+131.438+266.954+130.917C267.835+130.227+269.27+131.467+269.936+132.013C270.802+132.735+271.74+133.814+271.648+135.017" opacity="1" fill="#ffffff"/>
<path d="M0+0M288.455+175.389C288.137+176.952+286.271+177.42+285.081+176.466C284.14+175.699+283.937+174.487+283.894+173.343C283.868+172.65+283.783+171.333+284.48+170.921C285.4+170.368+286.624+171.719+287.19+172.324C287.929+173.113+288.69+174.252+288.455+175.389" opacity="1" fill="#ffffff"/>
<path d="M0+0M275.129+157.181C275.003+156.472+274.73+155.125+275.39+154.598C276.261+153.897+277.713+155.118+278.382+155.659C279.261+156.368+280.207+157.436+280.131+158.64C280.023+160.3+278.162+161.052+276.804+160.235C275.722+159.578+275.338+158.357+275.129+157.181" opacity="1" fill="#ffffff"/>
<path d="M0+0M263.52+154.209C263.102+155.819+261.133+156.207+259.952+155.152C259.011+154.3+258.863+153.028+258.881+151.834C258.891+151.117+258.876+149.741+259.62+149.347C260.609+148.821+261.806+150.293+262.364+150.953C263.091+151.812+263.82+153.04+263.52+154.209" opacity="1" fill="#ffffff"/>
<path d="M0+0M266.073+170.349C265.966+172.01+264.103+172.762+262.745+171.946C261.662+171.288+261.28+170.067+261.072+168.89C260.944+168.182+260.67+166.836+261.332+166.307C262.201+165.608+263.654+166.828+264.323+167.369C265.201+168.079+266.147+169.146+266.073+170.349" opacity="1" fill="#ffffff"/>
<path d="M0+0M244.303+149.712C243.804+151.303+241.815+151.587+240.693+150.472C239.799+149.576+239.714+148.298+239.793+147.108C239.841+146.388+239.893+145.014+240.659+144.659C241.673+144.186+242.792+145.715+243.315+146.403C243.998+147.302+244.665+148.563+244.303+149.712" opacity="1" fill="#ffffff"/>
<path d="M0+0M250.398+163.772C250.291+165.433+248.428+166.185+247.071+165.368C245.985+164.711+245.604+163.49+245.395+162.314C245.269+161.605+244.996+160.257+245.657+159.731C246.528+159.029+247.978+160.251+248.649+160.792C249.525+161.502+250.472+162.569+250.398+163.772" opacity="1" fill="#ffffff"/>
<path d="M0+0M437.243+112.657C421.671+108.072+408.138+110.229+399.448+127.797C387.73+151.485+398.969+192.632+414.24+200.186C429.511+207.74+469.039+191.707+480.757+168.019C487.534+154.318+485.067+143.965+477.447+135.519C471.451+134.563+467.818+132.138+467.818+132.138C468.282+139.226+474.386+152.685+474.386+152.685C468.936+146.522+462.666+137.21+462.666+137.21C462.666+137.21+462.48+143.731+454.905+151.414C454.905+151.414+455.774+139.199+451.842+131.957C451.842+131.957+442.683+133.788+432.096+133.791C432.096+133.791+439.163+130.035+442.631+123.016C442.631+123.016+432.678+121.396+422.238+119.177C422.238+119.177+432.3+116.234+437.486+112.847C437.486+112.847+437.397+112.78+437.243+112.657" opacity="1" fill="#d20a11"/>
<path d="M0+0M467.819+132.138C468.282+139.226+474.386+152.685+474.386+152.685C468.936+146.522+462.666+137.21+462.666+137.21C462.666+137.21+462.48+143.731+454.906+151.414C454.906+151.414+455.774+139.199+451.842+131.957C451.842+131.957+442.684+133.788+432.096+133.791C432.096+133.791+439.164+130.035+442.631+123.016C442.631+123.016+432.678+121.395+422.238+119.177C422.238+119.177+432.3+116.234+437.486+112.847C437.486+112.847+437.397+112.78+437.243+112.657C436.296+111.9+432.629+108.761+428.183+102.258C433.197+105.403+442.515+104.993+448.728+109.709C452.568+112.625+453.485+114.598+454.961+116.686C463.021+106.116+475.77+101.815+476.38+101.612C477.721+101.17+479.164+101.899+479.608+103.24C480.053+104.582+479.323+106.028+477.985+106.474C477.852+106.515+466.463+110.387+459.325+119.421C461.922+119.923+465.798+121.016+468.949+123.359C476.497+128.967+483.943+135.856+483.943+135.856C481.557+135.985+479.382+135.828+477.447+135.519C471.451+134.563+467.819+132.138+467.819+132.138" opacity="1" fill="#007c40"/>
<path d="M0+0M406.981+148.213C406.851+147.014+407.756+145.906+408.598+145.159C409.243+144.591+410.643+143.31+411.546+143.972C412.225+144.471+412.008+145.824+411.914+146.541C411.757+147.723+411.426+148.96+410.373+149.666C409.049+150.538+407.159+149.868+406.981+148.213" opacity="1" fill="#ffffff"/>
<path d="M0+0M418.903+136.786C417.376+137.208+415.782+135.989+416.122+134.358C416.371+133.179+417.569+132.402+418.605+131.953C419.395+131.611+421.122+130.823+421.774+131.733C422.269+132.42+421.642+133.641+421.335+134.292C420.819+135.37+420.125+136.443+418.903+136.786" opacity="1" fill="#ffffff"/>
<path d="M0+0M406.064+168.57C405.789+167.394+406.548+166.185+407.295+165.343C407.865+164.696+409.097+163.255+410.073+163.802C410.812+164.213+410.763+165.587+410.756+166.307C410.745+167.501+410.569+168.769+409.607+169.596C408.404+170.625+406.443+170.191+406.064+168.57" opacity="1" fill="#ffffff"/>
<path d="M0+0M418.91+156.887C418.78+155.688+419.682+154.579+420.529+153.834C421.173+153.264+422.572+151.984+423.472+152.644C424.155+153.144+423.939+154.5+423.844+155.214C423.688+156.399+423.358+157.635+422.304+158.341C420.979+159.211+419.089+158.542+418.91+156.887" opacity="1" fill="#ffffff"/>
<path d="M0+0M435.296+148.314C435.205+147.11+436.143+146.032+437.009+145.31C437.674+144.764+439.11+143.524+439.991+144.214C440.66+144.735+440.399+146.085+440.283+146.795C440.088+147.974+439.72+149.203+438.642+149.872C437.293+150.702+435.428+149.977+435.296+148.314" opacity="1" fill="#ffffff"/>
<path d="M0+0M418.49+188.685C418.255+187.549+419.016+186.41+419.755+185.621C420.321+185.016+421.544+183.665+422.464+184.218C423.161+184.63+423.077+185.947+423.051+186.64C423.008+187.784+422.805+188.996+421.863+189.763C420.674+190.717+418.808+190.249+418.49+188.685" opacity="1" fill="#ffffff"/>
<path d="M0+0M431.816+170.478C431.607+171.654+431.223+172.875+430.14+173.532C428.782+174.349+426.921+173.597+426.813+171.937C426.737+170.733+427.683+169.664+428.562+168.956C429.231+168.415+430.683+167.194+431.554+167.894C432.215+168.422+431.942+169.769+431.816+170.478" opacity="1" fill="#ffffff"/>
<path d="M0+0M443.425+167.506C443.124+166.337+443.854+165.109+444.581+164.249C445.139+163.59+446.336+162.118+447.325+162.644C448.069+163.038+448.054+164.413+448.063+165.131C448.081+166.325+447.934+167.597+446.992+168.449C445.812+169.504+443.842+169.116+443.425+167.506" opacity="1" fill="#ffffff"/>
<path d="M0+0M440.871+183.646C440.797+182.443+441.744+181.376+442.622+180.666C443.291+180.125+444.744+178.905+445.613+179.604C446.274+180.133+446+181.479+445.873+182.187C445.665+183.364+445.283+184.585+444.199+185.243C442.842+186.059+440.978+185.307+440.871+183.646" opacity="1" fill="#ffffff"/>
<path d="M0+0M462.642+163.009C462.28+161.86+462.947+160.599+463.63+159.7C464.153+159.012+465.272+157.483+466.286+157.955C467.051+158.311+467.104+159.685+467.151+160.404C467.23+161.595+467.146+162.873+466.252+163.769C465.13+164.884+463.141+164.6+462.642+163.009" opacity="1" fill="#ffffff"/>
<path d="M0+0M456.547+177.069C456.473+175.866+457.419+174.799+458.296+174.088C458.966+173.548+460.417+172.326+461.287+173.028C461.949+173.554+461.675+174.902+461.55+175.611C461.34+176.787+460.96+178.008+459.874+178.665C458.517+179.482+456.654+178.73+456.547+177.069" opacity="1" fill="#ffffff"/>
<path d="M0+0M327.297+133.154C311.94+136.788+301.555+145.133+302.686+164.153C304.21+189.801+333.532+219.122+350.065+218.139C366.599+217.156+392.243+184.567+390.719+158.92C389.837+144.086+382.764+136.535+372.259+133.077C366.736+135.16+362.501+134.863+362.501+134.863C366.309+140.625+377.949+149.045+377.949+149.045C370.378+146.469+360.595+141.629+360.595+141.629C360.595+141.629+363.582+147.224+360.89+157.362C360.89+157.362+355.735+146.631+348.925+142.412C348.925+142.412+342.075+148.372+333.138+153.478C333.138+153.478+337.295+146.9+336.839+139.302C336.839+139.302+327.655+142.732+317.771+145.891C317.771+145.891+324.848+138.556+327.594+133.197C327.594+133.197+327.486+133.183+327.297+133.154" opacity="1" fill="#d20a11"/>
<path d="M0+0M362.501+134.863C366.308+140.625+377.949+149.045+377.949+149.045C370.378+146.469+360.595+141.63+360.595+141.63C360.595+141.63+363.582+147.224+360.89+157.362C360.89+157.362+355.735+146.631+348.925+142.411C348.925+142.411+342.076+148.372+333.138+153.478C333.138+153.478+337.295+146.9+336.839+139.302C336.839+139.302+327.655+142.732+317.771+145.89C317.771+145.89+324.848+138.556+327.594+133.197C327.594+133.197+327.486+133.183+327.297+133.154C326.132+132.971+321.524+132.089+314.635+128.741C320.384+128.98+328.054+124.142+335.573+125.129C340.22+125.74+341.945+126.963+344.198+128.016C345.908+115.206+354.598+105.43+355.015+104.965C355.934+103.946+357.504+103.865+358.526+104.783C359.547+105.702+359.628+107.274+358.713+108.296C358.621+108.395+350.872+117.153+349.2+128.221C351.635+127.393+355.434+126.447+359.224+126.907C368.299+128.003+377.906+130.231+377.906+130.231C375.954+131.49+374.042+132.406+372.259+133.077C366.737+135.16+362.501+134.863+362.501+134.863" opacity="1" fill="#007c40"/>
<path d="M0+0M318.886+177.758C318.199+176.809+318.428+175.437+318.779+174.401C319.05+173.61+319.615+171.854+320.696+171.978C321.51+172.071+321.979+173.319+322.245+173.969C322.682+175.043+322.999+176.247+322.45+177.35C321.753+178.725+319.835+179.07+318.886+177.758" opacity="1" fill="#ffffff"/>
<path d="M0+0M323.444+162.365C322.358+163.457+320.424+163.196+319.925+161.655C319.567+160.54+320.205+159.307+320.863+158.428C321.364+157.759+322.443+156.261+323.432+156.715C324.181+157.056+324.24+158.39+324.295+159.087C324.379+160.246+324.31+161.486+323.444+162.365" opacity="1" fill="#ffffff"/>
<path d="M0+0M327.924+195.387C327.125+194.527+327.183+193.141+327.408+192.07C327.578+191.248+327.923+189.438+329.01+189.429C329.832+189.42+330.454+190.604+330.794+191.215C331.36+192.229+331.823+193.384+331.41+194.546C330.89+195.994+329.025+196.573+327.924+195.387" opacity="1" fill="#ffffff"/>
<path d="M0+0M333.138+179.332C332.451+178.383+332.678+177.011+333.034+175.974C333.302+175.183+333.867+173.427+334.945+173.551C335.762+173.644+336.233+174.893+336.497+175.542C336.937+176.617+337.254+177.82+336.704+178.924C336.005+180.297+334.087+180.643+333.138+179.332" opacity="1" fill="#ffffff"/>
<path d="M0+0M342.841+164.196C342.183+163.224+342.455+161.861+342.838+160.834C343.137+160.052+343.751+158.314+344.827+158.472C345.643+158.589+346.074+159.854+346.318+160.51C346.722+161.6+347.003+162.814+346.416+163.899C345.677+165.249+343.753+165.537+342.841+164.196" opacity="1" fill="#ffffff"/>
<path d="M0+0M348.11+206.381C347.364+205.535+347.458+204.206+347.701+203.184C347.887+202.4+348.27+200.67+349.313+200.693C350.1+200.705+350.663+201.858+350.975+202.456C351.49+203.442+351.903+204.563+351.478+205.665C350.933+207.044+349.133+207.548+348.11+206.381" opacity="1" fill="#ffffff"/>
<path d="M0+0M350.585+184.586C350.975+185.679+351.24+186.896+350.642+187.972C349.889+189.316+347.956+189.578+347.064+188.229C346.42+187.249+346.704+185.891+347.104+184.869C347.408+184.089+348.046+182.359+349.119+182.531C349.931+182.657+350.35+183.926+350.585+184.586" opacity="1" fill="#ffffff"/>
<path d="M0+0M358.953+176.481C358.136+175.639+358.16+174.25+358.36+173.174C358.513+172.349+358.814+170.529+359.903+170.496C360.721+170.471+361.371+171.639+361.725+172.24C362.316+173.239+362.804+174.385+362.42+175.558C361.932+177.017+360.082+177.639+358.953+176.481" opacity="1" fill="#ffffff"/>
<path d="M0+0M364.577+191.339C363.935+190.358+364.22+189.001+364.619+187.979C364.923+187.2+365.562+185.469+366.632+185.64C367.445+185.768+367.863+187.037+368.097+187.696C368.489+188.79+368.754+190.004+368.157+191.082C367.404+192.426+365.468+192.689+364.577+191.339" opacity="1" fill="#ffffff"/>
<path d="M0+0M373.01+163.422C372.151+162.626+372.106+161.24+372.249+160.152C372.359+159.319+372.567+157.489+373.651+157.399C374.469+157.33+375.175+158.465+375.562+159.049C376.203+160.016+376.747+161.136+376.424+162.323C376.014+163.806+374.198+164.524+373.01+163.422" opacity="1" fill="#ffffff"/>
<path d="M0+0M374.641+178.23C373.999+177.25+374.284+175.893+374.682+174.87C374.987+174.091+375.623+172.36+376.696+172.533C377.508+172.659+377.927+173.929+378.162+174.588C378.552+175.682+378.82+176.896+378.219+177.974C377.468+179.317+375.532+179.581+374.641+178.23" opacity="1" fill="#ffffff"/>
</g>
</g>
</svg>
