<svg id="subtitlesX" xmlns="http://www.w3.org/2000/svg" viewBox="0 0 32 32"><defs><style>.cls-1,.cls-2{fill:#43ace5;}.cls-1{opacity:0.3;isolation:isolate;}</style></defs><title>Artboard 1</title><polygon class="cls-1" points="28.02 6.56 28.02 21.86 22.02 21.86 20.3 25.3 15.37 22.16 3.87 22.16 3.87 6.56 28.02 6.56"/><path class="cls-2" d="M19.74,26.6l-3.56-3.14h-11a2.77,2.77,0,0,1-2.64-2.87V8.15A2.74,2.74,0,0,1,5.22,5.3H26.79a2.75,2.75,0,0,1,2.63,2.85V20.57a2.76,2.76,0,0,1-2.63,2.85H23.06ZM4.89,7.7V21.14h12l2.82,2.63,2.54-2.65H27V7.7Z"/><path class="cls-2" d="M7.48,15.78H12a.89.89,0,0,1,.92.86v1.85a.89.89,0,0,1-.92.86H7.48a.89.89,0,0,1-.92-.86V16.64A.89.89,0,0,1,7.48,15.78Z"/><path class="cls-2" d="M15.07,15.78h5a.88.88,0,0,1,.91.86v1.85a.89.89,0,0,1-.91.86h-5a.89.89,0,0,1-.92-.86V16.64A.89.89,0,0,1,15.07,15.78Z"/><path class="cls-2" d="M23,15.78h1.08a.89.89,0,0,1,.92.86l0,1.85a.89.89,0,0,1-.91.86H23.06a.89.89,0,0,1-.91-.86V16.64A.86.86,0,0,1,23,15.78Z"/></svg>