<svg id="Layer_1" data-name="Layer 1" xmlns="http://www.w3.org/2000/svg" viewBox="0 0 642 595.28"><defs><style>.cls-1{fill:#fff;}</style></defs><title>Artboard 1</title><path class="cls-1" d="M510.94,585,336.19,470H73.79c-33.08,0-60-29.25-60-65.21V76.65c0-35.95,26.91-65.19,60-65.19H566.85c33.09,0,60,29.24,60,65.19V404.76c0,36-26.92,65.21-60,65.21H518.79ZM73.79,55.59C65.2,55.59,58,65.23,58,76.65V404.76c0,11.42,7.25,21.08,15.84,21.08H349.4l122.66,80.73,5.51-80.73h89.28c8.61,0,15.86-9.66,15.86-21.08V76.65c0-11.42-7.25-21.06-15.86-21.06Z"/><rect class="cls-1" x="115.62" y="303.51" width="136.06" height="58.62" rx="19.68" ry="19.68"/><rect class="cls-1" x="278.67" y="303.51" width="145.91" height="58.62" rx="19.68" ry="19.68"/><rect class="cls-1" x="450.37" y="303.51" width="62.63" height="58.62" rx="19.68" ry="19.68"/></svg>