<svg width="24" height="24" viewBox="0 0 24 24" fill="none" xmlns="http://www.w3.org/2000/svg">
    <path d="M20 4H4C2.9 4 2 4.9 2 6V18C2 19.1 2.9 20 4 20H11V18H4V6H20V11H22V6C22 4.9 21.1 4 20 4ZM21 13H14C13.45 13 13 13.45 13 14V19C13 19.55 13.45 20 14 20H21C21.55 20 22 19.55 22 19V14C22 13.45 21.55 13 21 13ZM20 18H15V15H20V18ZM10 10C10.55 10 11 9.55 11 9C11 8.45 10.55 8 10 8H7C6.45 8 6 8.45 6 9V12C6 12.55 6.45 13 7 13C7.55 13 8 12.55 8 12V11.41L11 14.41L12.41 13L9.41 10H10Z" fill="white"/>
</svg>
