<svg width="24" height="24" viewBox="0 0 24 24" fill="none" xmlns="http://www.w3.org/2000/svg">
    <path d="M12.45 13.78C12.31 13.85 12.16 13.89 11.98 13.89C11.75 13.89 11.56 13.83 11.39 13.7C11.23 13.57 11.14 13.4 11.13 13.18H9.45C9.45 13.57 9.56 13.92 9.78 14.22C10 14.52 10.29 14.76 10.67 14.93C11.05 15.1 11.48 15.19 11.97 15.19C12.49 15.19 12.94 15.09 13.32 14.9C13.7 14.71 14 14.44 14.21 14.11C14.42 13.77 14.53 13.38 14.53 12.95C14.53 12.55 14.45 12.2 14.27 11.89C14.1 11.58 13.86 11.34 13.56 11.17C13.26 11 12.92 10.91 12.55 10.91C12.23 10.91 11.94 10.97 11.7 11.1C11.46 11.23 11.28 11.38 11.18 11.57H11.14L11.26 10.18H14.12V8.82H9.84L9.59 12.28L11.11 12.57C11.18 12.42 11.3 12.3 11.45 12.21C11.6 12.12 11.77 12.08 11.95 12.08C12.13 12.08 12.28 12.12 12.42 12.19C12.55 12.26 12.66 12.37 12.74 12.51C12.82 12.65 12.85 12.81 12.85 12.99C12.85 13.17 12.82 13.33 12.74 13.47C12.66 13.61 12.56 13.71 12.42 13.79L12.45 13.78ZM12 2C9.7 2 7.8 2.67 6 4.1V3C6 2.45 5.55 2 5 2C4.45 2 4 2.45 4 3V6.5C4 7.05 4.45 7.5 5 7.5H8.5C9.05 7.5 9.5 7.05 9.5 6.5C9.5 5.95 9.05 5.5 8.5 5.5H7.45C8.82 4.47 10.24 4 11.99 4C16.4 4 19.99 7.59 19.99 12C19.99 16.41 16.4 20 11.99 20C8.99 20 6.26 18.34 4.88 15.68L4.77 15.48L3 16.39L3.11 16.6C4.84 19.93 8.24 22 12 22C17.52 22 22 17.51 22 12C22 6.49 17.51 2 12 2Z" />
</svg>
