<svg width="24" height="24" viewBox="0 0 24 24" fill="none" xmlns="http://www.w3.org/2000/svg">
    <path d="M12.42 2.09001C12.07 1.92001 11.65 1.98001 11.36 2.23001L5.64 7.00001H2C1.45 7.00001 1 7.45001 1 8.00001V16C1 16.55 1.45 17 2 17H5.64L11.36 21.77C11.54 21.92 11.77 22 12 22C12.14 22 12.29 21.97 12.42 21.91C12.77 21.75 13 21.39 13 21V3.00001C13 2.61001 12.78 2.26001 12.42 2.09001ZM19.85 4.30001L19.15 3.59001L17.72 4.99001L18.42 5.70001C20.08 7.39001 21 9.63001 21 12C21 14.37 20.08 16.61 18.42 18.3L17.72 19.01L19.15 20.41L19.85 19.7C21.88 17.63 23 14.89 23 12C23 9.11001 21.88 6.37001 19.85 4.30001ZM17.21 7.33001L16.54 6.59001L15.05 7.93001L15.72 8.67001C16.55 9.59001 17 10.77 17 12C17 13.23 16.54 14.41 15.72 15.33L15.05 16.07L16.54 17.41L17.21 16.67C18.37 15.38 19 13.72 19 12C19 10.28 18.36 8.62001 17.21 7.33001Z" />
</svg>
