<svg width="24" height="24" viewBox="0 0 24 24" fill="none" xmlns="http://www.w3.org/2000/svg">
    <path d="M12.42 2.09004C12.07 1.93004 11.66 1.98004 11.36 2.23004L5.64 7.00004H2C1.45 7.00004 1 7.45004 1 8.00004V16C1 16.55 1.45 17 2 17H5.64L11.36 21.77C11.54 21.92 11.77 22 12 22C12.14 22 12.29 21.97 12.42 21.91C12.77 21.75 13 21.39 13 21V3.00004C13 2.61004 12.78 2.26004 12.42 2.09004ZM22 10L20.59 8.59004L18.59 10.59L16.59 8.59004L15.18 10L17.18 12L15.18 14L16.59 15.41L18.59 13.41L20.59 15.41L22 14L20 12L22 10Z" />
</svg>
