<?xml version="1.0" encoding="UTF-8" standalone="no"?><svg xmlns:svg="http://www.w3.org/2000/svg" xmlns="http://www.w3.org/2000/svg" width="100%" height="100%" viewBox="0 0 100 100"><g transform="translate(0,-952.36224)"><path style="fill:#000000" d="m 12.578763,1029.4931 c -1.865376,-0.1067 -3.3156308,-0.4571 -3.6726238,-0.8872 -1.060497,-1.2779 -1.736088,-24.5139 -1.121522,-38.57321 0.29861,-6.83125 0.692239,-12.79821 0.874731,-13.25992 0.238233,-0.60274 1.272332,-0.95524 3.6669418,-1.25 4.921331,-0.60578 75.507207,-0.47718 77.306757,0.14084 0.96635,0.33187 1.63222,1.01066 1.9394,1.97701 0.25727,0.80939 0.57261,9.45912 0.70073,19.22162 0.2323,17.69946 -0.31943,31.15766 -1.31827,32.15656 -0.33268,0.3326 -5.50521,0.5329 -14.37634,0.5565 l -13.856688,0.037 -2.280225,-5.875 c -1.254125,-3.2312 -2.977355,-6.8456 -3.829405,-8.032 -3.07452,-4.2809 -8.119611,-5.0569 -11.537441,-1.7746 -2.143164,2.0583 -2.964476,3.6686 -5.384066,10.5566 l -1.888099,5.375 -11.070606,-0.096 c -6.088835,-0.053 -12.457808,-0.1757 -14.153274,-0.2728 z m 21.618141,-18.3999 c 8.813693,-5.4491 6.941943,-19.10196 -3.015658,-21.99671 -3.40189,-0.98896 -6.031474,-0.66064 -9.454942,1.18051 -6.889884,3.7054 -8.373611,12.4695 -3.121221,18.4366 2.83956,3.2259 5.194751,4.2148 9.605039,4.0331 2.92139,-0.1203 3.979675,-0.4126 5.986782,-1.6535 z m 43.034693,0.7351 c 4.22156,-2.0436 6.77983,-6.1979 6.77983,-11.0095 0,-9.10104 -9.55585,-15.0255 -17.634103,-10.93285 -4.70684,2.3846 -7.524715,8.12598 -6.4735,13.18965 0.840975,4.051 3.891645,7.7743 7.580183,9.2517 2.20821,0.8844 7.4434,0.6164 9.74759,-0.499 z"/></g></svg>