<svg width="24" height="24" viewBox="0 0 24 24" fill="none" xmlns="http://www.w3.org/2000/svg">
<path d="M3 3C2.44772 3 2 3.44772 2 4V17C2 17.5523 2.44772 18 3 18H5.5C6.05228 18 6.5 17.5523 6.5 17C6.5 16.4477 6.05228 16 5.5 16H4V5H20V16H18.5C17.9477 16 17.5 16.4477 17.5 17C17.5 17.5523 17.9477 18 18.5 18H21C21.5523 18 22 17.5523 22 17V4C22 3.44772 21.5523 3 21 3H3Z" fill="white"/>
<path d="M12.7809 14.3753C12.5911 14.1381 12.3038 14 12 14C11.6962 14 11.4089 14.1381 11.2191 14.3753L7.21914 19.3753C6.979 19.6755 6.93219 20.0867 7.09871 20.4332C7.26523 20.7797 7.6156 21 8.00001 21H16C16.3844 21 16.7348 20.7797 16.9013 20.4332C17.0678 20.0867 17.021 19.6755 16.7809 19.3753L12.7809 14.3753Z" fill="white"/>
</svg>
