<svg width="24" height="24" viewBox="0 0 24 24" fill="none" xmlns="http://www.w3.org/2000/svg">
<path fill-rule="evenodd" clip-rule="evenodd" d="M4.5 5.25C4.22386 5.25 4 5.47386 4 5.75V11.15C4 11.2052 4.0452 11.2499 4.10043 11.2507C8.16328 11.304 11.446 14.5867 11.4993 18.6496C11.5001 18.7048 11.5448 18.75 11.6 18.75H19.5C19.7761 18.75 20 18.5261 20 18.25V5.75C20 5.47386 19.7761 5.25 19.5 5.25H4.5ZM12.7589 16.6721C12.7697 16.7175 12.8101 16.75 12.8569 16.75H17.5C17.7761 16.75 18 16.5261 18 16.25V7.75C18 7.47386 17.7761 7.25 17.5 7.25H6.5C6.22386 7.25 6 7.47386 6 7.75V9.89315C6 9.93985 6.03249 9.98031 6.07794 9.99105C9.37976 10.7714 11.9786 13.3702 12.7589 16.6721Z" fill="white"/>
<path d="M9.9 18.75C9.95523 18.75 10.0001 18.7048 9.99918 18.6496C9.94612 15.4158 7.33417 12.8039 4.10039 12.7508C4.04517 12.7499 4 12.7948 4 12.85V14.15C4 14.2052 4.04511 14.2499 4.10032 14.2511C6.50599 14.3037 8.44629 16.244 8.4989 18.6497C8.50011 18.7049 8.54477 18.75 8.6 18.75H9.9Z" fill="white"/>
<path d="M4 15.85C4 15.7948 4.04499 15.7498 4.10019 15.7516C5.67775 15.8034 6.94663 17.0723 6.99836 18.6498C7.00017 18.705 6.95523 18.75 6.9 18.75H4.5C4.22386 18.75 4 18.5261 4 18.25V15.85Z" fill="white"/>
</svg>
