<svg width="18" height="18" viewBox="0 0 18 18" fill="none" xmlns="http://www.w3.org/2000/svg">
<path fill-rule="evenodd" clip-rule="evenodd" d="M3.375 3.9375C3.16789 3.9375 3 4.10539 3 4.3125V8.3625C3 8.40392 3.0339 8.43745 3.07532 8.43799C6.12246 8.47797 8.58453 10.94 8.62451 13.9872C8.62505 14.0286 8.65858 14.0625 8.7 14.0625H14.625C14.8321 14.0625 15 13.8946 15 13.6875V4.3125C15 4.10539 14.8321 3.9375 14.625 3.9375H3.375ZM9.56921 12.504C9.57727 12.5381 9.60761 12.5625 9.64264 12.5625H13.125C13.3321 12.5625 13.5 12.3946 13.5 12.1875V5.8125C13.5 5.60539 13.3321 5.4375 13.125 5.4375H4.875C4.66789 5.4375 4.5 5.60539 4.5 5.8125V7.41986C4.5 7.45489 4.52437 7.48523 4.55845 7.49329C7.03482 8.07852 8.98398 10.0277 9.56921 12.504Z" fill="white"/>
<path d="M7.425 14.0625C7.46642 14.0625 7.50006 14.0286 7.49938 13.9872C7.45959 11.5619 5.50063 9.60291 3.07529 9.56312C3.03388 9.56244 3 9.59608 3 9.6375V10.6125C3 10.6539 3.03383 10.6874 3.07524 10.6883C4.87949 10.7278 6.33472 12.183 6.37418 13.9873C6.37508 14.0287 6.40858 14.0625 6.45 14.0625H7.425Z" fill="white"/>
<path d="M3 11.8875C3 11.8461 3.03374 11.8124 3.07514 11.8137C4.25831 11.8525 5.20997 12.8042 5.24877 13.9874C5.25013 14.0288 5.21642 14.0625 5.175 14.0625H3.375C3.16789 14.0625 3 13.8946 3 13.6875V11.8875Z" fill="white"/>
</svg>
