<svg width="24" height="24" viewBox="0 0 24 24" fill="none" xmlns="http://www.w3.org/2000/svg">
<path d="M2 4C2 3.44772 2.44772 3 3 3H21C21.5523 3 22 3.44772 22 4V20C22 20.5523 21.5523 21 21 21H15.9621C15.9872 20.67 16 20.3365 16 20C16 12.8203 10.1797 7 3 7C2.66353 7 2.33004 7.01278 2 7.03789V4Z" fill="white"/>
<path d="M2 14C2 13.4477 2.44772 13 3 13C6.86599 13 10 16.134 10 20C10 20.5523 9.55228 21 9 21C8.44772 21 8 20.5523 8 20C8 17.2386 5.76142 15 3 15C2.44772 15 2 14.5523 2 14Z" fill="white"/>
<path d="M3 9C2.44772 9 2 9.44772 2 10C2 10.5523 2.44772 11 3 11C7.97056 11 12 15.0294 12 20C12 20.5523 12.4477 21 13 21C13.5523 21 14 20.5523 14 20C14 13.9249 9.07513 9 3 9Z" fill="white"/>
<path d="M3 17C2.44772 17 2 17.4477 2 18C2 18.5523 2.44772 19 3 19C3.55228 19 4 19.4477 4 20C4 20.5523 4.44772 21 5 21C5.55228 21 6 20.5523 6 20C6 18.3431 4.65685 17 3 17Z" fill="white"/>
</svg>
