<svg width="24" height="24" viewBox="0 0 24 24" fill="none" xmlns="http://www.w3.org/2000/svg">
<path fill-rule="evenodd" clip-rule="evenodd" d="M2 5C1.44772 5 1 5.44772 1 6V19C1 19.5523 1.44772 20 2 20H8C8.24222 20 8.47621 19.9121 8.6585 19.7526L12 16.8288L15.3415 19.7526C15.5238 19.9121 15.7578 20 16 20H22C22.5523 20 23 19.5523 23 19V6C23 5.44772 22.5523 5 22 5H2ZM7.5 9.25C6.25736 9.25 5.25 10.2574 5.25 11.5C5.25 12.7426 6.25736 13.75 7.5 13.75C8.74264 13.75 9.75 12.7426 9.75 11.5C9.75 10.2574 8.74264 9.25 7.5 9.25ZM14.25 11.5C14.25 10.2574 15.2574 9.25 16.5 9.25C17.7426 9.25 18.75 10.2574 18.75 11.5C18.75 12.7426 17.7426 13.75 16.5 13.75C15.2574 13.75 14.25 12.7426 14.25 11.5Z" fill="white"/>
</svg>
