<svg width="24" height="24" viewBox="0 0 24 24" fill="none" xmlns="http://www.w3.org/2000/svg">
<path fill-rule="evenodd" clip-rule="evenodd" d="M21.7749 11.4828L8.76949 2V6.62069L15.5723 11.6207C15.8391 11.8276 15.8391 12.2414 15.5723 12.4483L8.76949 17.3793V22L21.7749 12.5172C22.075 12.2414 22.075 11.7586 21.7749 11.4828ZM13.3381 11.4828L4.93456 5.34483V8.89655L8.6361 11.6207C8.90288 11.8276 8.90288 12.2414 8.6361 12.4483L4.93456 15.1034V18.6552L13.3381 12.5172C13.6715 12.2414 13.6715 11.7586 13.3381 11.4828ZM6.40183 11.5172L2 8.27586V10.5172L3.50063 11.6207C3.7674 11.8276 3.7674 12.2414 3.50063 12.4483L2 13.5172V15.7586L6.40183 12.5172C6.73531 12.2414 6.73531 11.7586 6.40183 11.5172Z" fill="white"/>
</svg>
