<svg width="24" height="24" viewBox="0 0 24 24" fill="none" xmlns="http://www.w3.org/2000/svg">
<path fill-rule="evenodd" clip-rule="evenodd" d="M19 4C19.5523 4 20 4.44772 20 5V19C20 19.5523 19.5523 20 19 20C18.4477 20 18 19.5523 18 19V5C18 4.44772 18.4477 4 19 4Z" fill="white"/>
<path d="M5.53688 4.15634C5.22895 3.96039 4.83874 3.94776 4.51879 4.12339C4.19885 4.29903 4 4.63502 4 5V19C4 19.365 4.19885 19.701 4.51879 19.8766C4.83874 20.0522 5.22895 20.0396 5.53688 19.8437L16.5369 12.8437C16.8253 12.6601 17 12.3419 17 12C17 11.6581 16.8253 11.3399 16.5369 11.1563L5.53688 4.15634Z" fill="white"/>
</svg>
