<svg width="16" height="16" viewBox="0 0 16 16" fill="none" xmlns="http://www.w3.org/2000/svg">
<path d="M9.10346 3.86227C9.10346 3.55756 9.35047 3.31055 9.65518 3.31055H11.3104C11.6151 3.31055 11.8621 3.55756 11.8621 3.86227V12.6899C11.8621 12.9946 11.6151 13.2416 11.3104 13.2416H9.65518C9.35047 13.2416 9.10346 12.9946 9.10346 12.6899V3.86227Z" fill="white"/>
<path d="M4.13794 3.86227C4.13794 3.55756 4.38495 3.31055 4.68966 3.31055H6.34484C6.64954 3.31055 6.89656 3.55756 6.89656 3.86227V12.6899C6.89656 12.9946 6.64954 13.2416 6.34484 13.2416H4.68966C4.38495 13.2416 4.13794 12.9946 4.13794 12.6899V3.86227Z" fill="white"/>
</svg>
