<svg width="20" height="20" viewBox="0 0 20 20" fill="none" xmlns="http://www.w3.org/2000/svg">
<g clip-path="url(#clip0_9_846)">
<path d="M17.5 2.5C17.721 2.5 17.933 2.5878 18.0893 2.74408C18.2455 2.90036 18.3333 3.11232 18.3333 3.33333V9.16667H16.6667V4.16667H3.33333V15.8333H8.33333V17.5H2.5C2.27898 17.5 2.06702 17.4122 1.91074 17.2559C1.75446 17.0996 1.66666 16.8877 1.66666 16.6667V3.33333C1.66666 3.11232 1.75446 2.90036 1.91074 2.74408C2.06702 2.5878 2.27898 2.5 2.5 2.5H17.5ZM17.5 10.8333C17.721 10.8333 17.933 10.9211 18.0893 11.0774C18.2455 11.2337 18.3333 11.4457 18.3333 11.6667V16.6667C18.3333 16.8877 18.2455 17.0996 18.0893 17.2559C17.933 17.4122 17.721 17.5 17.5 17.5H10.8333C10.6123 17.5 10.4004 17.4122 10.2441 17.2559C10.0878 17.0996 10 16.8877 10 16.6667V11.6667C10 11.4457 10.0878 11.2337 10.2441 11.0774C10.4004 10.9211 10.6123 10.8333 10.8333 10.8333H17.5ZM5.58916 5.24417L7.46416 7.11917L9.16666 5.41667V10H4.58333L6.28583 8.2975L4.41083 6.4225L5.58916 5.24417Z" fill="white"/>
</g>
<defs>
<clipPath id="clip0_9_846">
<rect width="20" height="20" fill="white"/>
</clipPath>
</defs>
</svg>
