<svg width="14" height="14" viewBox="0 0 14 14" fill="none" xmlns="http://www.w3.org/2000/svg">
<g clip-path="url(#clip0_9_944)">
<path d="M12.25 1.75C12.4047 1.75 12.5531 1.81146 12.6625 1.92085C12.7719 2.03025 12.8333 2.17862 12.8333 2.33333V6.41667H11.6667V2.91667H2.33332V11.0833H5.83332V12.25H1.74999C1.59528 12.25 1.44691 12.1885 1.33751 12.0791C1.22811 11.9697 1.16666 11.8214 1.16666 11.6667V2.33333C1.16666 2.17862 1.22811 2.03025 1.33751 1.92085C1.44691 1.81146 1.59528 1.75 1.74999 1.75H12.25ZM12.25 7.58333C12.4047 7.58333 12.5531 7.64479 12.6625 7.75419C12.7719 7.86358 12.8333 8.01196 12.8333 8.16667V11.6667C12.8333 11.8214 12.7719 11.9697 12.6625 12.0791C12.5531 12.1885 12.4047 12.25 12.25 12.25H7.58332C7.42861 12.25 7.28024 12.1885 7.17084 12.0791C7.06145 11.9697 6.99999 11.8214 6.99999 11.6667V8.16667C6.99999 8.01196 7.06145 7.86358 7.17084 7.75419C7.28024 7.64479 7.42861 7.58333 7.58332 7.58333H12.25ZM3.91241 3.67092L5.22491 4.98342L6.41666 3.79167V7H3.20832L4.40007 5.80825L3.08757 4.49575L3.91241 3.67092Z" fill="white"/>
</g>
<defs>
<clipPath id="clip0_9_944">
<rect width="14" height="14" fill="white"/>
</clipPath>
</defs>
</svg>
