<svg width="24" height="24" viewBox="0 0 24 24" fill="none" xmlns="http://www.w3.org/2000/svg">
<path fill-rule="evenodd" clip-rule="evenodd" d="M6 3C6 2.44772 6.44772 2 7 2H17C17.5523 2 18 2.44772 18 3C18 3.55228 17.5523 4 17 4H7C6.44772 4 6 3.55228 6 3ZM4 6C4 5.44772 4.44772 5 5 5H19C19.5523 5 20 5.44772 20 6C20 6.55228 19.5523 7 19 7H5C4.44772 7 4 6.55228 4 6ZM2 9C2 8.44772 2.44772 8 3 8H21C21.5523 8 22 8.44772 22 9V21C22 21.5523 21.5523 22 21 22H3C2.44772 22 2 21.5523 2 21V9Z" fill="white"/>
</svg>
