<svg width="24" height="24" viewBox="0 0 24 24" fill="none" xmlns="http://www.w3.org/2000/svg">
<path fill-rule="evenodd" clip-rule="evenodd" d="M5 4C4.44772 4 4 4.44772 4 5V19C4 19.5523 4.44772 20 5 20C5.55228 20 6 19.5523 6 19V5C6 4.44772 5.55228 4 5 4Z" fill="white"/>
<path d="M18.4631 4.15634C18.771 3.96039 19.1613 3.94776 19.4812 4.12339C19.8012 4.29903 20 4.63502 20 5V19C20 19.365 19.8012 19.701 19.4812 19.8766C19.1613 20.0522 18.771 20.0396 18.4631 19.8437L7.46312 12.8437C7.17468 12.6601 7 12.3419 7 12C7 11.6581 7.17468 11.3399 7.46312 11.1563L18.4631 4.15634Z" fill="white"/>
</svg>
