<svg width="24" height="24" viewBox="0 0 24 24" fill="none" xmlns="http://www.w3.org/2000/svg">
<mask id="mask0_1_110" style="mask-type:luminance" maskUnits="userSpaceOnUse" x="0" y="0" width="24" height="24">
<path d="M24 0H0V24H24V0Z" fill="white"/>
</mask>
<g mask="url(#mask0_1_110)">
<path d="M11.4607 1.08093C11.1796 1.222 11 1.52456 11 1.85715V3.04938C5.94668 3.5511 2 7.81465 2 13C2 18.5228 6.47715 23 12 23C17.5228 23 22 18.5228 22 13C22 10.6195 21.167 8.43086 19.7774 6.71362C19.43 6.28429 18.8003 6.21789 18.371 6.5653C17.9416 6.91271 17.8752 7.54238 18.2226 7.97171C19.3346 9.34592 20 11.0939 20 13C20 17.4183 16.4183 21 12 21C7.58172 21 4 17.4183 4 13C4 8.92038 7.05369 5.55399 11 5.06189V6.14285C11 6.47544 11.1796 6.778 11.4607 6.91907C11.7418 7.06013 12.0737 7.01424 12.3121 6.80132L14.7121 4.65847C14.8945 4.49562 15 4.25438 15 4C15 3.74562 14.8945 3.50438 14.7121 3.34153L12.3121 1.19868C12.0737 0.985761 11.7418 0.939866 11.4607 1.08093Z" fill="white"/>
<path d="M16 12.9999L8 13.0001M12 17V9.00012" stroke="white" stroke-width="2" stroke-linecap="round" stroke-linejoin="round"/>
</g>
</svg>
