<svg width="24" height="24" viewBox="0 0 24 24" fill="none" xmlns="http://www.w3.org/2000/svg">
<mask id="mask0_1_124" style="mask-type:luminance" maskUnits="userSpaceOnUse" x="0" y="0" width="24" height="24">
<path d="M24 0H0V24H24V0Z" fill="white"/>
</mask>
<g mask="url(#mask0_1_124)">
<path d="M12.5393 1.08093C12.8204 1.222 13 1.52456 13 1.85715V3.04938C18.0533 3.5511 22 7.81465 22 13C22 18.5228 17.5229 23 12 23C6.4772 23 2 18.5228 2 13C2 10.6195 2.833 8.43086 4.2226 6.71362C4.57 6.28429 5.1997 6.21789 5.629 6.5653C6.0584 6.91271 6.1248 7.54238 5.7774 7.97171C4.6654 9.34592 4 11.0939 4 13C4 17.4183 7.5817 21 12 21C16.4183 21 20 17.4183 20 13C20 8.92038 16.9463 5.55399 13 5.06189V6.14285C13 6.47544 12.8204 6.778 12.5393 6.91907C12.2582 7.06013 11.9263 7.01424 11.6879 6.80132L9.2879 4.65847C9.1055 4.49562 9 4.25438 9 4C9 3.74562 9.1055 3.50438 9.2879 3.34153L11.6879 1.19868C11.9263 0.985761 12.2582 0.939866 12.5393 1.08093Z" fill="white"/>
<path d="M16 12.9999L8 13.0001" stroke="white" stroke-width="2" stroke-linecap="round" stroke-linejoin="round"/>
</g>
</svg>
