<svg width="24" height="24" viewBox="0 0 24 24" fill="none" xmlns="http://www.w3.org/2000/svg">
<path d="M20.3 12.7C20 12.3 20 11.8 20.3 11.4L21.6 10C21.9 9.7 21.9 9.2 21.7 8.8L19.7 5.3C19.5 4.9 19.1 4.7 18.6 4.8L16.7 5.2C16.2 5.3 15.7 5 15.6 4.5L15 2.7C14.8 2.3 14.4 2 14 2H10C9.6 2 9.2 2.3 9.1 2.7L8.4 4.5C8.3 5 7.8 5.3 7.3 5.2L5.4 4.8C5 4.7 4.6 4.9 4.3 5.3L2.3 8.8C2.1 9.1 2.2 9.6 2.5 9.9L3.8 11.3C4.1 11.7 4.1 12.2 3.8 12.6L2.5 14C2.2 14.3 2.2 14.8 2.4 15.2L4.4 18.7C4.6 19.1 5 19.3 5.5 19.2L7.4 18.8C7.9 18.7 8.4 19 8.5 19.5L9.1 21.3C9.2 21.7 9.6 22 10 22H14C14.4 22 14.8 21.7 14.9 21.3L15.5 19.5C15.7 19 16.2 18.7 16.6 18.8L18.5 19.2C18.9 19.3 19.4 19.1 19.6 18.7L21.6 15.2C21.8 14.8 21.8 14.4 21.5 14L20.3 12.7ZM12 15C10.3 15 9 13.7 9 12C9 10.3 10.3 9 12 9C13.7 9 15 10.3 15 12C15 13.7 13.7 15 12 15Z" fill="white"/>
</svg>
