<svg width="24" height="24" viewBox="0 0 24 24" fill="none" xmlns="http://www.w3.org/2000/svg">
<path fill-rule="evenodd" clip-rule="evenodd" d="M10.2858 2.43444C10.4667 2.16303 10.7714 2 11.0976 2H12.9024C13.2286 2 13.5333 2.16303 13.7142 2.43444L15.145 4.58067L17.4209 4.05547C17.7486 3.97983 18.0922 4.07838 18.3301 4.31624L19.6838 5.6699C19.9216 5.90775 20.0202 6.25137 19.9445 6.57913L19.4193 8.85498L21.5656 10.2858C21.837 10.4667 22 10.7714 22 11.0976V12.9024C22 13.2286 21.837 13.5333 21.5656 13.7142L19.4193 15.145L19.9445 17.4209C20.0202 17.7486 19.9216 18.0922 19.6838 18.3301L18.3301 19.6838C18.0922 19.9216 17.7486 20.0202 17.4209 19.9445L15.145 19.4193L13.7142 21.5656C13.5333 21.837 13.2286 22 12.9024 22H11.0976C10.7714 22 10.4667 21.837 10.2858 21.5656L8.85498 19.4193L6.57913 19.9445C6.25137 20.0202 5.90775 19.9216 5.6699 19.6838L4.31624 18.3301C4.07838 18.0922 3.97983 17.7486 4.05547 17.4209L4.58067 15.145L2.43444 13.7142C2.16303 13.5333 2 13.2286 2 12.9024V11.0976C2 10.7714 2.16303 10.4667 2.43444 10.2858L4.58067 8.85498L4.05547 6.57913C3.97983 6.25136 4.07838 5.90775 4.31624 5.6699L5.6699 4.31624C5.90775 4.07838 6.25136 3.97983 6.57913 4.05547L8.85498 4.58067L10.2858 2.43444ZM8.5 12C8.5 10.067 10.067 8.5 12 8.5C13.933 8.5 15.5 10.067 15.5 12C15.5 13.933 13.933 15.5 12 15.5C10.067 15.5 8.5 13.933 8.5 12Z" fill="white"/>
</svg>
