<svg width="16" height="16" viewBox="0 0 16 16" fill="none" xmlns="http://www.w3.org/2000/svg">
<path d="M13.5333 8.46683C13.3333 8.20016 13.3333 7.86683 13.5333 7.60016L14.4 6.66683C14.6 6.46683 14.6 6.1335 14.4667 5.86683L13.1333 3.5335C13 3.26683 12.7333 3.1335 12.4 3.20016L11.1333 3.46683C10.8 3.5335 10.4667 3.3335 10.4 3.00016L9.99999 1.80016C9.86666 1.5335 9.59999 1.3335 9.33333 1.3335H6.66666C6.39999 1.3335 6.13333 1.5335 6.06666 1.80016L5.59999 3.00016C5.53333 3.3335 5.19999 3.5335 4.86666 3.46683L3.59999 3.20016C3.33333 3.1335 3.06666 3.26683 2.86666 3.5335L1.53333 5.86683C1.39999 6.06683 1.46666 6.40016 1.66666 6.60016L2.53333 7.5335C2.73333 7.80016 2.73333 8.1335 2.53333 8.40016L1.66666 9.3335C1.46666 9.5335 1.46666 9.86683 1.59999 10.1335L2.93333 12.4668C3.06666 12.7335 3.33333 12.8668 3.66666 12.8002L4.93333 12.5335C5.26666 12.4668 5.59999 12.6668 5.66666 13.0002L6.06666 14.2002C6.13333 14.4668 6.39999 14.6668 6.66666 14.6668H9.33333C9.59999 14.6668 9.86666 14.4668 9.93333 14.2002L10.3333 13.0002C10.4667 12.6668 10.8 12.4668 11.0667 12.5335L12.3333 12.8002C12.6 12.8668 12.9333 12.7335 13.0667 12.4668L14.4 10.1335C14.5333 9.86683 14.5333 9.60016 14.3333 9.3335L13.5333 8.46683ZM7.99999 10.0002C6.86666 10.0002 5.99999 9.1335 5.99999 8.00016C5.99999 6.86683 6.86666 6.00016 7.99999 6.00016C9.13333 6.00016 9.99999 6.86683 9.99999 8.00016C9.99999 9.1335 9.13333 10.0002 7.99999 10.0002Z" fill="white"/>
</svg>
