<svg width="24" height="24" viewBox="0 0 24 24" fill="none" xmlns="http://www.w3.org/2000/svg">
<g opacity="0.5" filter="url(#filter0_b_9_1145)">
<circle cx="12" cy="12" r="12" fill="url(#paint0_radial_9_1145)" fill-opacity="0.25"/>
</g>
<path d="M8 18.0003C8 17.8162 8.14924 17.667 8.33333 17.667H15.6667C15.8508 17.667 16 17.8162 16 18.0003V18.667C16 18.8511 15.8508 19.0003 15.6667 19.0003H8.33333C8.14924 19.0003 8 18.8511 8 18.667V18.0003Z" fill="#F5F5F5"/>
<path fill-rule="evenodd" clip-rule="evenodd" d="M6.33303 7.3335C6.14893 7.3335 5.99969 7.48273 5.99969 7.66683V16.3335C5.99969 16.5176 6.14893 16.6668 6.33303 16.6668H17.6664C17.8505 16.6668 17.9997 16.5176 17.9997 16.3335V7.66683C17.9997 7.48273 17.8505 7.3335 17.6664 7.3335H6.33303ZM8.33331 14.6667C8.14922 14.6667 7.99998 14.5174 7.99998 14.3333V9.66667C7.99998 9.48257 8.14922 9.33333 8.33331 9.33333H11C11.1841 9.33333 11.3333 9.48257 11.3333 9.66667V10.3333C11.3333 10.5174 11.1841 10.6667 11 10.6667H9.39998C9.36316 10.6667 9.33331 10.6965 9.33331 10.7333V13.2667C9.33331 13.3035 9.36316 13.3333 9.39998 13.3333H11C11.1841 13.3333 11.3333 13.4826 11.3333 13.6667V14.3333C11.3333 14.5174 11.1841 14.6667 11 14.6667H8.33331ZM13 14.6667C12.8159 14.6667 12.6666 14.5174 12.6666 14.3333V9.66667C12.6666 9.48257 12.8159 9.33333 13 9.33333H15.6666C15.8507 9.33333 16 9.48257 16 9.66667V10.3333C16 10.5174 15.8507 10.6667 15.6666 10.6667H14.0666C14.0298 10.6667 14 10.6965 14 10.7333V13.2667C14 13.3035 14.0298 13.3333 14.0666 13.3333H15.6666C15.8507 13.3333 16 13.4826 16 13.6667V14.3333C16 14.5174 15.8507 14.6667 15.6666 14.6667H13Z" fill="#F5F5F5"/>
<defs>
<filter id="filter0_b_9_1145" x="-10" y="-10" width="44" height="44" filterUnits="userSpaceOnUse" color-interpolation-filters="sRGB">
<feFlood flood-opacity="0" result="BackgroundImageFix"/>
<feGaussianBlur in="BackgroundImageFix" stdDeviation="5"/>
<feComposite in2="SourceAlpha" operator="in" result="effect1_backgroundBlur_9_1145"/>
<feBlend mode="normal" in="SourceGraphic" in2="effect1_backgroundBlur_9_1145" result="shape"/>
</filter>
<radialGradient id="paint0_radial_9_1145" cx="0" cy="0" r="1" gradientUnits="userSpaceOnUse" gradientTransform="translate(12 12) rotate(90) scale(12)">
<stop/>
<stop offset="1" stop-opacity="0.01"/>
</radialGradient>
</defs>
</svg>
