<svg width="24" height="24" viewBox="0 0 24 24" fill="none" xmlns="http://www.w3.org/2000/svg">
<path fill-rule="evenodd" clip-rule="evenodd" d="M21.002 3L3.00195 3.00003C2.44967 3.00003 2.00195 3.44774 2.00195 4.00003V18.0358C2.00195 18.301 2.10731 18.5553 2.29485 18.7429C2.48238 18.9304 2.73674 19.0358 3.00195 19.0358H8.65157L11.3553 21.3021C11.7252 21.6123 12.2639 21.6138 12.6357 21.3058L15.3757 19.0358L21.002 19.0357C21.5542 19.0357 22.002 18.588 22.002 18.0357V4C22.002 3.73478 21.8966 3.48043 21.7091 3.29289C21.5215 3.10536 21.2672 3 21.002 3ZM6.99976 9C6.99976 8.44772 7.44747 8 7.99976 8H15.9998C16.552 8 16.9998 8.44772 16.9998 9C16.9998 9.55228 16.552 10 15.9998 10H7.99976C7.44747 10 6.99976 9.55228 6.99976 9ZM7.99976 12C7.44747 12 6.99976 12.4477 6.99976 13C6.99976 13.5523 7.44747 14 7.99976 14H15.9998C16.552 14 16.9998 13.5523 16.9998 13C16.9998 12.4477 16.552 12 15.9998 12H7.99976Z" fill="white"/>
</svg>
