<svg width="24" height="24" viewBox="0 0 24 24" fill="none" xmlns="http://www.w3.org/2000/svg">
<path fill-rule="evenodd" clip-rule="evenodd" d="M23 12C23 8.13401 19.866 5 16 5H8C4.134 5 1 8.13401 1 12C1 15.866 4.134 19 8 19H16C19.866 19 23 15.866 23 12ZM11.5 12C11.5 10.067 9.933 8.5 8 8.5C6.067 8.5 4.5 10.067 4.5 12C4.5 13.933 6.067 15.5 8 15.5C9.933 15.5 11.5 13.933 11.5 12Z" fill="white"/>
<path d="M8 10C9.10462 10 10 10.8954 10 12C10 13.1046 9.10462 14 8 14C6.89538 14 6 13.1046 6 12C6 10.8954 6.89538 10 8 10Z" fill="white"/>
</svg>
