<svg width="20" height="20" viewBox="0 0 20 20" fill="none" xmlns="http://www.w3.org/2000/svg">
<path d="M10.3333 3.41678C10.0833 3.25011 9.66666 3.33344 9.41666 3.50011L5.49999 6.66678H2.49999C1.99999 6.66678 1.66666 7.00011 1.66666 7.50011V12.5001C1.66666 13.0001 1.99999 13.3334 2.49999 13.3334H5.58332L9.49999 16.5001C9.83332 16.7501 10.4167 16.7501 10.6667 16.3334C10.75 16.1668 10.8333 16.0001 10.8333 15.8334V4.16678C10.8333 3.83344 10.6667 3.58344 10.3333 3.41678ZM14.25 7.83344C14.1667 7.75011 14.0833 7.66678 14.0833 7.58344C13.75 7.25011 13.25 7.25011 12.9167 7.58344C12.5833 7.91678 12.5833 8.41678 12.9167 8.75011C13.1667 9.16678 13.3333 9.58344 13.3333 10.0001C13.3333 10.5001 13.0833 11.0001 12.75 11.2501C12.4167 11.5834 12.3333 12.0834 12.6667 12.4168C13 12.7501 13.5 12.8334 13.8333 12.5001C15.25 11.3334 15.4167 9.25011 14.25 7.83344ZM16.75 5.75011C16.6667 5.58344 16.5 5.50011 16.3333 5.33344C16 5.00011 15.5 5.00011 15.1667 5.33344C14.8333 5.66678 14.8333 6.16678 15.1667 6.50011C17.0833 8.41678 17.0833 11.5834 15.1667 13.5834C15.0833 13.6668 14.9167 13.7501 14.8333 13.9168C14.5 14.2501 14.4167 14.7501 14.75 15.0834C15.0833 15.4168 15.5833 15.5001 15.9167 15.1668C18.75 12.7501 19.1667 8.50011 16.75 5.75011Z" fill="white"/>
</svg>
