<svg width="20" height="20" viewBox="0 0 20 20" fill="none" xmlns="http://www.w3.org/2000/svg">
<path d="M10.3333 3.41678C10.0833 3.25011 9.66666 3.33344 9.41666 3.50011L5.49999 6.66678H2.49999C1.99999 6.66678 1.66666 7.00011 1.66666 7.50011V12.5001C1.66666 13.0001 1.99999 13.3334 2.49999 13.3334H5.49999L9.41666 16.5001C9.74999 16.7501 10.3333 16.7501 10.5833 16.3334C10.6667 16.1668 10.75 16.0001 10.75 15.8334V4.16678C10.8333 3.83344 10.6667 3.58344 10.3333 3.41678ZM16.5833 10.0001L18.0833 8.50011C18.4167 8.16678 18.4167 7.66678 18.0833 7.33344C17.75 7.00011 17.25 7.00011 16.9167 7.33344L15.4167 8.83344L13.9167 7.33344C13.5833 7.00011 13.0833 7.00011 12.75 7.33344C12.4167 7.66678 12.4167 8.16678 12.75 8.50011L14.25 10.0001L12.75 11.5001C12.4167 11.8334 12.4167 12.3334 12.75 12.6668C13.0833 13.0001 13.5833 13.0001 13.9167 12.6668L15.4167 11.1668L16.9167 12.6668C17.25 13.0001 17.75 13.0001 18.0833 12.6668C18.4167 12.3334 18.4167 11.8334 18.0833 11.5001L16.5833 10.0001Z" fill="white"/>
</svg>
